<?xml version="1.0" encoding="utf-8"?>
<!-- Generator: Adobe Illustrator 27.0.1, SVG Export Plug-In . SVG Version: 6.00 Build 0)  -->
<svg version="1.1"
	 id="svg438" xmlns:svg="http://www.w3.org/2000/svg" xmlns:dc="http://purl.org/dc/elements/1.1/" xmlns:sodipodi="http://sodipodi.sourceforge.net/DTD/sodipodi-0.dtd" xmlns:cc="http://creativecommons.org/ns#" xmlns:rdf="http://www.w3.org/1999/02/22-rdf-syntax-ns#" xmlns:inkscape="http://www.inkscape.org/namespaces/inkscape" inkscape:version="1.0.2 (e86c870879, 2021-01-15)" sodipodi:docname="Rick and Morty logo.svg"
	 xmlns="http://www.w3.org/2000/svg" xmlns:xlink="http://www.w3.org/1999/xlink" x="0px" y="0px" viewBox="0 0 750.1 229.1"
	 style="enable-background:new 0 0 750.1 229.1;" xml:space="preserve">
<style type="text/css">
	.st0{fill:#91A126;}
	.st1{fill:#193840;}
	.st2{fill:#42B4CA;}
</style>
<path id="path30" class="st0" d="M652.7,207.3l0-3.4h0.6l1.1,2.8l1-2.8h0.6l0,3.4h-0.4l0-2.8h0l-1,2.8h-0.4l-1.1-2.8h0l0,2.8
	L652.7,207.3 M651.2,207.4h-0.4l0-3l-1.1,0V204l2.7,0v0.4h-1.1L651.2,207.4"/>
<g>
	<path class="st1" d="M148.5,217.1l-0.3-1.6c0.4-2-0.6-4.8-0.9-5.6l-0.3-1.3c-0.3-1.8-3.1-8.1-4.9-10.4l-0.3-0.4c-1-1.2-2-2.3-3-3.3
		c-1.5-1.5-3-3.1-3.2-4.2c-0.1-0.7-0.1-1.3-0.2-1.9c-0.1-1.8-0.3-3.3-1.2-4.6c-0.7-1-1.8-2.5-3.1-3.4c-0.7-0.5-1.6-0.8-2.2-1
		l-0.4-0.1l-0.2-0.1c-1-0.5-3.2-1.6-4.3-3.7l-0.4-0.8c-1.2-2.5-2.3-4.6-4.2-5.2c-1.1-0.3-3.1-1.2-3.8-3.1c-0.2-0.7-0.5-1.5-0.7-2.5
		c-0.6-2.2-1.3-4.7-2.5-6.5c-1.2-1.7-3.4-3.2-4.9-4.2l-1.1-0.8c-0.3-0.4-0.9-1.7-1.4-2.9c-1.4-3.2-3-7.2-6.9-9.5
		c-1.2-0.7-2.3-1.1-3.4-1.1l-0.6,0c-0.7,0.1-1.4,0.4-2.2,0.6c-0.9,0.3-1-0.1-1.3-0.9l-0.2-0.4c-0.4-0.9-0.8-1.6-1.2-2.3l-0.1-0.1
		c-0.4-0.6-0.9-1.6-2-2.2l-1.3-0.3l-1.3,0.3l-0.9,0.7c-0.6-0.6-0.9-1.6-1.3-2.3l-0.6-1.1c-0.5-0.9-0.9-1.9-1.5-2.8
		c-0.8-1.2-2.2-3.4-4.4-3.6l-0.4,0c-1,0-1.2,0.4-1.8-0.5c-0.6-0.8-0.4-1,0.5-1.5l0.6-0.3c1-0.5,2-1,2.9-2c0.9-0.9,1.4-2,1.8-3
		l0.4-0.8c0.5-0.9,1-1.4,1.8-1.7c0.8-0.3,1.8-0.4,2.8-0.6l0.5-0.1c0.9-0.1,1.9-0.3,2.8-0.7c0.8-0.4,1.6-0.9,2.4-1.7
		c3.4-3.4,4.5-8.2,5-11.5c0.1-0.7,0.2-1.5,0.3-1.7l0.4-0.3c1.2-0.7,2.4-1.6,3-4.2c0.3-1.4,0.2-2.7,0.1-3.9c-0.1-1-0.1-1.9,0.1-2.5
		l1-1.3c1.4-1.6,3.6-4.1,3.8-8.3c0.1-1.9-0.1-3.6-0.3-5.1c-0.2-1.9-0.4-3.6,0-5.2c0.5-1.8,1-3.5,1-5.4c0-2.4-0.9-4.4-2.7-5.9
		l-0.1-0.1c-0.9-0.7-1.4-1.2-1.6-1.9c-0.1-0.4,0-1.8,0.1-3c0.2-2.5,0.5-6,0-8.4c-0.5-1.9-2-3.3-3.2-4.2c-1.1-0.8-2.2-1.3-3.4-1.4
		l-0.4,0c-1.3,0-2.4,0.4-3.3,0.8c-0.7,0.3-1.3,0.5-1.8,0.5c-1.2,0-1.4-0.5-1.5-0.9l-0.1-1.2L86.9,36c-0.1-0.7-0.1-1.5-0.3-2.3
		c-0.1-0.5-0.4-1.4-1.1-2.1c-0.9-0.8-2-0.8-2.4-0.8h-0.2h-0.1c-0.7,0-1.5,0.1-2.2,0.2c-0.7,0.1-1.4,0.2-2,0.2
		c-0.6,0-1.1-0.1-1.5-0.3c-0.9-0.5-2-1.2-3-1.8c-1.4-0.9-2.7-1.8-4-2.3c-1.5-0.6-3.1-1.4-4.5-2.1c-0.7-0.3-1.3-0.7-2-1.1
		c-1.2-0.7-2.4-1.5-3.8-2c-1.5-0.6-3.3-0.8-5.4-0.8l0,0c-0.5,0-1.1,0-1.7,0.1c-1.1,0.1-2.4,0.2-3.6,0.5c-1.5,0.4-2.6,1.3-3.6,2
		l-0.6,0.5c-1.1,0.8-2.3,1.8-3.8,2.9c-0.7,0.6-1.4,1.1-2.1,1.7c-2.4,1.9-5.4,4.1-8.2,4.1l-0.7,0c-1.2-0.2-2.4-0.5-3.7-0.9l-0.2-0.1
		c-0.6-0.2-1.2-0.4-2-0.4l-0.6,0c-0.9,0.1-1.6,0.4-2.2,0.6c-1.2,0.5-2.5,1.2-3.8,2.1l-0.3,0.2l-1.6,1.1l-1.1,1.1l-0.3,0.4
		c-0.6,0.6-1.8,2.4-2.7,2.2c-1-0.2-1.6-1-2.7-1l-0.6,0.1c-0.5,0.1-1.3,0.4-1.9,1.4c-1.1,1.7-1.2,3.9-1,5.4c0.2,1.9,0.8,3.5,1.9,4.7
		c0.8,0.9,1.5,1.5,2.1,2c1.3,1.1,2,1.7,2.2,4.5c0.1,1.7-0.4,3.6-0.8,5.5c-0.8,3-1.6,6.5-0.3,10c0.9,2.5,2.8,4.4,4.4,6.2
		c2,2.1,3.9,4.2,4,6.9c0,2.3-0.6,4.5-1,6.1c-0.3,1-0.5,1.7-0.5,2.4c-0.1,1.8,0.5,2.7,0.9,3.4l0.3,0.5l-0.1,0.7
		c-0.2,0.8-0.5,2.1,0.4,3.5c0.9,1.6,1.3,2.8,1.2,4.2l-0.2,1.1c-0.3,1.6-0.7,3.8,1,6.5c0.7,1.1,1.5,2,2.1,2.7c1.1,1.3,1.7,2,1.8,3.2
		c0.1,0.4-0.1,1-0.2,1.6c-0.3,1.2-0.7,2.9,0.1,5.3c0.2,0.5,0.4,1,0.6,1.7c1.2,3.2,3.1,8.4,3.3,12.9c0.1,2.6-0.4,5.1-1.5,7.5
		c-0.2,0.5-0.9,2-0.3,3.7c0.3,0.9,0.9,1.6,1.4,2.2l0.2,0.2c0.6,0.8,1.3,1.6,1.9,2.9c1.5,3.4,1.9,5.2,1.4,6.7l-0.7,1.3
		c-0.8,1.3-1.5,2.6-1.5,5.6v0.1c0,3,0,5,1.8,7.5c1.4,2,1.6,3,2.1,4.9c0.3,1.1,0.7,2.1,1.3,3l1.2,1.3l0.6,1l0.1,1.3
		c0,0.8,0,1.7,0.2,2.6c0.2,1.1,0.1,2.2-0.1,3.5c-0.1,0.7-0.2,1.4-0.2,2.2c0,0.3-0.1,1.1,0.3,1.8c0.4,1,1.3,1.6,1.9,1.9l0.3,0.2
		c1.1,0.8,2.4,1.7,2.4,2.6c0.1,0.8,0,1.6,0,2.5c-0.1,1.9-0.2,3.8,0.4,5.5c0.3,0.8,0.7,1.6,1.2,2.2c0.5,0.6,1.1,1.4,1.9,1.8l1.4,0.4
		c0.7,0,1.4-0.3,2-0.9c0.9-1,1.2-2.5,1.2-3.2c0-1.7-0.1-3.4-0.3-5l-0.1-0.9c-0.1-0.6-0.2-1.2-0.1-1.6l1.1-1.4l0.3-0.4
		c0.8-0.8,1.7-1.8,2.4-2.8c2.5-3.7,0.8-5.9-0.1-7.1l-0.4-0.5c-0.5-0.9-0.8-2.1-1-3.6c-0.1-0.9-0.1-1.7,0.1-2.5
		c0.1-0.6,0.4-1.3,0.6-2c0.6-1.6,1.3-3.6,0.7-5.9c-0.3-1.1-0.9-2-1.4-2.7l-0.4-0.5l-0.6-1l-1-1.6c-0.7-1.1-1.2-2-1.4-2.9V169
		c0.1-1,0.7-2.1,1.2-3.1c0.9-1.7,2-3.9,1.8-6.9c-0.1-2.2-0.9-3.7-1.5-5c-0.3-0.7-0.7-1.4-0.6-1.8l0.5-1.3c0.5-1,1-2.3,0.9-3.8
		c-0.1-1-0.5-1.7-0.8-2.3l-0.2-0.3c-0.9-1.9-2.3-4.8-1.8-6.5c0.2-0.8,1.1-2,1.9-2.3c1.1-0.5,2.4,1.5,3.1,2.2c1.5,1.5,3.2,3.2,4.8,4
		c0.6,0.3,1.4,0.4,2.2,0.4c0.9,0,1.8-0.1,2.5-0.3l1.4-0.2l0.3,0c1.7,0.8,4.6,5.5,5.2,6.9c0.4,0.9,1.2,2.5,2.6,3.5
		c0.6,0.4,1.2,0.7,1.9,0.7l0.3,0l1.4-0.5l1.3-1c0.7-0.6,0.9-0.8,1.2-0.8h0.1c0.6,0,1.5,0.9,2.2,1.6c0.7,0.7,1.2,1.2,1.8,1.5
		c0.7,0.3,1.4,0.3,2.1,0.3c0.9,0,1.6,0,2.2,0.9c0.5,0.7,0.9,1.4,1.3,2.1c0.8,1.4,1.7,3,2,4.6c0.7,3.1,2,4.6,4.1,4.6l1.4-0.2
		c0.7-0.2,1.4-0.5,2.1-0.8c0.8-0.3,1.6-0.7,2.1-0.7l0.3,0.1c0.9,0.7,3.1,5.5,3.8,7.1l0.4,0.8c0.9,2,3.4,4.4,5.9,4.8l1.1,0.1
		c1.2,0.1,1.6,0.1,2.3,1.5c0.1,0.3,0.4,0.8,0.7,1.4c1,2,2.6,5.3,4.4,7.1c1,1,2.2,1.7,3.5,2.5c0.6,0.4,1.1,0.7,1.7,1.1l0.3,0.2
		l0.1,0.1c1,0.6,1.9,1.3,2.5,2l0.6,1.1l-0.1,0.6l-0.1,0.9c-0.3,2.6,1.2,5.2,2.2,7c0.2,0.4,0.9,1.3,2.4,3.5c0.9,1.3,2.3,3.2,2.6,3.7
		c0.7,1.5,1.3,2.9,3.1,3.8c0.7,0.3,1.3,0.6,1.9,0.8c1.5,0.6,2.5,1,3.4,2.5l0.8,1.3l0.1,0.3c0.4,0.7,0.8,1.4,1.4,2.2l0.1,0.1
		c0.3,0.5,1,1.4,2.2,1.6l0.3,0c0.7,0,1.4-0.3,1.9-0.9c0.9-1.2,0.5-2.8,0.1-4.4L148.5,217.1z M69.5,105.8l-1.1,0.2
		c-0.6,0.1-1.3,0.2-2,0.4c-2.7,0.7-5.2,2-7.3,3.9l-1.3,1.4c-0.8,0.9-1.6,1.8-2.3,2l-1.2-1c-1.1-1-2.5-2.2-4.3-2.2h-0.1
		c-2.1,0.1-3.4,1.3-5,2.5l-0.2,0.1l-0.3-0.2c-0.3-1.1,0.3-2.6,0.8-3.6l0.4-0.8l0.1-0.2c0.5-0.8,1.4-2.6,0.4-4.4
		c-0.5-0.9-1.3-1.3-1.8-1.6l-0.2-0.1l-0.6-0.4l-0.5-1.3l0.1-1.3c0.2-2.4,0.6-6-1.8-7.8l-1.1-0.7c-0.6-0.4-1.3-0.8-1.4-1.2l-0.2-0.6
		l-0.3-1.2c0.5-0.8,0.8-1.8,0.9-3.1c0.1-0.8,0.2-2.3-0.5-3.5l-0.9-1.2l-0.6-1.3l-0.9-1.1c-0.5-0.4-1.3-0.5-1.4-1.2
		c-0.3-1.5-0.4-3-0.4-4.5l0-0.8l0-1.6l0.1-0.3c0.2-0.4,0.4-1.1,0.3-1.8c0-1.3-0.9-2.2-1.3-2.6l-0.2-0.2l-0.9-1.1
		c-0.6-0.8-0.8-1.5-0.7-2.1l0-0.4c0.1-0.9,0.1-3.6,1.3-3.8c0.6-0.1,1.4,0.1,2,0.2c0.9,0.2,2,0.4,3.1,0.4l0,0h0
		c1.2,0,2.2-0.2,3.2-0.7c1.6-0.7,3.1-2,4.5-3.2c1.6-1.3,3.2-2.7,4.2-2.8l0.8,0c1,0,1.8,0.1,2.7,0.3c0.8,0.1,1.8,0.3,3,0.4l0.6,0
		c0.7,0,1.4-0.1,2-0.2l1.8-0.2c0.6,0.2,0.7,1.1,0.9,1.6c0.3,0.7,0.6,1.3,0.9,1.9c0.7,1.3,1.7,2.4,3,3.1c0.6,0.3,1.2,0.4,1.9,0.4
		c0.8,0,1.5-0.2,2.3-0.5c0.6-0.2,1.2-0.7,1.9-0.9c0.9-0.2,1.7,0.9,2.1,1.6c0.8,1.3,0.5,2.2,0.1,3.6c-0.4,1.3,0,2.4,0.8,3.5
		c0.8,1,1.9,2.1,2.9,3.2c0.6,0.6,1.2,1.2,1.7,1.8c0.4,0.4,1.1,0.8,1.3,1.4c0.1,0.7-0.3,0.9-0.8,1.2l-1,1.1c-0.6,1-0.7,2.2-0.3,3.2
		l0.6,0.9l0.2,0.3c1,1.2,1.5,2.1,1.5,3c0,0.7,0,1.3-0.1,1.9l0,0.4c0,0.9,0,1.9-0.3,2.5l-0.6,0.5c-0.5,0.4-1.2,0.8-1.8,1.7L77.7,90
		c-0.3,0.6-0.7,0.7-1.2,1.1l-1.1,1.1c-0.8,1-1.3,2.4-1.5,4c-0.5,4.3-1,6.9-1.6,7.8C71.4,105.1,70.7,105.5,69.5,105.8z"/>
	<path class="st1" d="M111.8,70.8c-0.3,3.4,1.8,5.3,3.1,5.9l1,0.4l0.4,0.1l0.6,0.5l0.2,0.2c0.8,1.1,1.9,2.6,4.3,2.6
		c2.7,0,5.9-1.4,5.9-8.1c0-2.3,0.4-3.5,0.8-4.8l0-0.1l0.4-1.3c0.2-0.7,0.7-3.1-0.6-5c-0.8-1.3-1.9-1.4-2.5-1.4
		c-0.7,0-1.2,0.2-1.6,0.4l-0.3,0.1l0.1-1.5c0.1-0.8,0.2-1.6,0.1-2.4c-0.2-2-0.8-3.8-3.9-4l-0.4,0h0c-2.5,0-4.8,1.8-5.6,4.5
		c-0.5,1.7,0.2,3,0.7,4.1c0.3,0.6,0.6,1.2,0.5,1.5c-0.1,0.5-0.7,1.7-1.2,2.7C113,67.1,111.9,69.1,111.8,70.8z"/>
	<path class="st1" d="M129.5,90.5c0-2.1-1.4-3.4-3.7-3.4l0,0h0l-1.5,0.2c-1.1,0.2-1.8,1-2.2,1.4l-0.4,0.4l-0.4,0.1
		c-0.4,0-0.8-0.1-1.4-0.4c-0.3-0.1-0.7-0.3-1.3-0.3l-0.4,0c-0.7,0.1-1.3,0.5-1.7,1.1c-0.9,1.3-0.5,3.5-0.2,4.7l0.4,1.2l0.3,1.1
		c-0.1,1-0.5,2.4-0.8,3.6c-0.5,1.8-0.7,2.6-0.6,3.3c0.1,1.9,1.5,2.6,2.3,3.1l0.6,0.4c0.3,0.6,0.1,3.1-0.5,4.4l-0.5,1
		c-1.1,2.3-2.2,4.8-2.2,6.9c0,2.1,1.5,3.7,2.6,4.9l1,1.2c0.2,0.5,0.4,2.9-0.4,8.5c-0.3,2.6,0,4.1,0.8,5.7c0.3,0.8,0.3,1.5,0.1,2.6
		l-0.2,1.2c-0.1,1.5,0.6,2.7,1.3,4l0.8,1.5c0.3,0.8,0.1,4.4,0,6.7c-0.1,2-0.2,3.9-0.1,5.1c0.2,3.2,2.2,5.9,4.4,6.1l0.1,0h0.1h0.1h0
		c2.4,0,2.9-2.5,3.2-3.8l0.1-0.4c0.3-1.6,0.3-2.6,0.1-4.6c-0.1-0.8-0.1-1.8-0.2-3c-0.1-3.5,0.4-4.7,1.1-6.3l0.4-0.9
		c1.2-2.9,2.5-6.8,2.3-9c-0.2-1.8-0.9-3.2-1.5-4.4c-0.4-0.9-0.8-1.7-1-2.5c-0.2-1.4,1.2-3.6,2.3-5.1c1.1-1.6,1.6-2.4,1.7-3.2l0-0.1
		c0.2-2.6-0.9-4.7-3.2-5.9c-1.7-0.8-2.1-2.6-2.2-5.7c-0.1-1.5,0.4-3.4,1-5.5c0.3-1.1,0.6-2.3,0.8-3.5c0.6-3.3-0.2-5.3-1-7.2
		l-0.2-0.5c-0.4-0.9-0.2-1.7,0-2.7C129.4,91.8,129.5,91.2,129.5,90.5z M122,145.9C122,145.9,122,145.9,122,145.9
		C122,145.9,122,145.9,122,145.9z M121.7,145.4c-0.1-0.2-0.2-0.4-0.3-0.5C121.6,145.1,121.6,145.2,121.7,145.4z M121.2,143.6
		c0,0.2,0,0.4,0,0.5C121.2,143.9,121.2,143.7,121.2,143.6z M121.2,144.2c0,0.2,0.1,0.4,0.2,0.6C121.3,144.6,121.3,144.4,121.2,144.2
		z"/>
	<path class="st1" d="M186.8,137c-1.2,0-2.5,0.8-4,2.2c-0.4,0.4-1.1,0.6-2,0.6c-0.9,0-1.8-0.2-2.5-0.6l-1.3-0.8
		c-3.1-1.9-4.2-2.5-5.1-2.7l-0.3,0c-1.6,0-2.6,2-4.3,1.3c-0.6-0.3-1.5-0.6-2.6-0.6l-0.6,0c-0.8,0.1-1.6,0.6-3,1.7
		c-0.9,0.6-2.5,1.8-3.3,1.8h-0.1c-0.3,0-1.1-0.3-1.6-1.1c-0.4-0.7-0.4-1.5,0.1-2.6c0.5-1.2,1.3-2.5,2.1-3.8c1.9-3.1,3-5.2,2.7-7.1
		c-0.4-2-1.8-2.9-2.7-3.6l-0.8-0.6c-0.4-0.8-0.2-3,2.8-5.7c1.4-1.3,2.8-2.4,4.1-3.3c1.6-1.2,3-2.3,4.1-3.6c0.7-0.8,1.2-1.2,1.7-1.6
		c0.5-0.4,1-0.8,1.4-1.5l0.1-0.1l0-1.7l-1-1.2c0-0.6,1.1-0.9,1.6-1.1c0.8-0.3,1.6-0.5,2.5-0.6c1.7,0,7.1-0.2,9.2-1
		c1.2-0.5,3.8-2.2,4.6-4.3c0.4-1,0.3-2-0.2-2.9c-0.4-0.8-1.1-1.2-1.6-1.4c-1-0.5-2.1-0.7-3.2-0.7c-1.2,0-2.3,0.3-3.4,0.5l-0.6,0.1
		l-1,0.2c-0.7,0.2-1.4,0.4-2,0.4l-1.4-0.6l-0.1-0.1c-0.8-0.8-2-1.9-3.7-1.9l0,0c-2.6,0-4.8,0.6-6.6,1.7l-1.3,0.7
		c-1.7,1-3.7,2.1-4.1,4.5l-0.1,1c-0.2,1.6-0.3,1.9-1.1,2.1l-0.2,0.1c-5.3,1.6-6.6,2.5-7.2,3.1l-0.3,0.3c-0.9,0.9-2.9,2.6-2.7,5.7
		c0.1,1.7-0.2,3-1.2,5.3c-0.3,0.7-0.6,1.2-0.8,1.7c-0.7,1.4-1.4,2.7-1.3,5.4c0.1,2.2-0.7,3.4-1.7,4.9l-0.7,1.2l-0.9,1.3
		c-0.6,0.8-1.4,1.8-1.9,2.9c0,0-1.4,3.2-0.6,5l0.1,0.1c0.7,1.2,1.6,1.4,2.1,1.4c0.7,0,1.1-0.1,0.8,0.8c-1.7,4.7-1.6,6.3-1.3,7.3
		c0.3,1,1.1,2.2,3.4,2.2c0.6,0,1.2-0.1,1.7-0.1l1.3-0.1c1.2,0,1.9,0.5,2.3,1.5l-0.2,1.1c-0.3,0.9-0.6,2.4,0.3,4
		c0.7,1.2,1.4,1.7,1.9,2.1c0.5,0.4,0.8,0.6,1.1,1.3c0.1,0.2,0.2,1.2,0.2,1.9c0.2,2.9,0.5,6.6,3.4,6.7h0.1c2.7,0,4-3,5.3-6
		c0.3-0.7,0.6-1.3,0.9-1.9c0.7-1.4,1.3-2.8,2.3-4.1c0.5-0.6,1-1.3,1.8-1.5c0.9-0.3,1.8,0.6,2.8,0.6c0.6,0,1.1-0.2,1.5-0.4
		c1-0.4,2.1-1.2,3-1.9c1-0.8,2.1-1.5,3-1.8c0.1,0,0.4-0.1,1.2-0.1h0.1c0.6,0,1.3,0,2,0.1c0.7,0,1.4,0.1,2.1,0.1h0.1l0.7,0
		c3-0.2,4.2-1.9,5.3-3.5l0.6-0.8c1.8-2.4,1.8-5.7,0.1-7.2C188.1,137.2,187.5,137,186.8,137z"/>
	<path class="st1" d="M256.9,72.1c-1,0-2.2,0.3-3.4,0.7c-2,0.7-8.4,4.8-10,6.3c-0.6,0.5-1.2,1.1-1.9,1.8c-1.4,1.3-2.9,2.8-3.9,3.4
		c-1.1,0.7-1.7,1.3-2.4,2.1c-0.6,0.6-1.2,1.4-2.3,2.4c-1.2,1.1-1.7,1.3-2.1,1.3l-0.4,0l-0.7,0l-1,0.1c-1.7,0.4-3.1,1.2-5.6,3.7
		c-2.6,2.6-4.7,3.4-6.5,4c-0.7,0.2-1.2,0.5-1.8,0.9l-1,0.9l-0.5-1.5l-0.1-0.7c-0.1-0.8-0.2-1.3-0.2-1.9c0-0.4,0.2-0.9,0.6-1.6
		c0.6-1.2,1.4-2.7,1.6-5.3c0.1-1.4,0.2-2.9-0.1-4.3c-0.2-0.7-0.7-1.3-1-1.9c-0.3-0.7-0.2-1.5-0.2-2.2c0-0.8,0-1.7-0.1-2.7
		c-0.2-1.7-0.5-2.6-0.8-3.2l-0.3-0.9c0-0.2,0.3-1.2,0.6-2l0.6-1.5c0.8-2.1,1.9-4.7,1.8-7.4c-0.1-3.8-0.4-6.7-3.3-7.5l-0.7-0.1
		c-1.6,0-2.7,1.2-3.4,2l-0.1,0.1l-0.9,1.1l-1.5-0.9l-0.1,0c-0.4-0.2-1-0.5-1.7-0.5l-1.5,0.5c-0.7,0.5-1,1.1-1.1,1.5
		c-0.9,2.1-0.5,3.9-0.2,5.5l0.2,1.5c0.1,1.1,0.2,2.3,0.3,3.7c0.2,3.6,0.1,6.4-0.4,9c-0.1,0.5-0.2,1-0.3,1.6
		c-0.3,1.8-0.7,4.1-1.2,6.2c-0.7,2.7-1.5,5.4-2.3,7.6c-0.3,0.9-0.5,1.7-0.7,2.3c-0.7,2.2-0.8,4.1-0.9,5.7c-0.1,1.2-0.2,2.4-0.5,3
		c-1,1.7-2.9,5.8-3.4,9.4c-0.2,1.3,0.2,2.7,1.1,3.7c0.7,0.8,1.5,1.2,2.3,1.2c0.5,0,1.3-0.2,2-0.9l0.8-1l0.1-0.1
		c0.5-0.6,1.3-1.5,2.2-2.5l0.7-0.8c0.3-0.4,1-1.5,1.4-0.9c0.6,0.9-0.6,3.2-0.9,4c-0.6,1.5-0.5,2.7-0.5,3.7c0.1,0.6,0.1,1.2-0.1,1.7
		c-0.2,0.5-0.3,1.3-0.5,2.8c-0.1,1-0.4,3-0.7,3.4c-0.9,0.9-1.8,2.9-1.8,4.6c0,1.1,0.6,1.8,1,2.3c0.4,0.4,0.6,0.8,0.7,1.4
		c0,0.9-0.7,7.3-1.4,9.9c-0.3,1.3-0.6,3-0.8,4.6c-0.2,1.6-0.4,3.4-0.7,4.1c-0.8,1.6-2.3,6.4-2.7,9.3c-0.2,1.2-0.2,2.6,0.2,3.8
		c0.2,0.7,0.9,1.1,1.2,1.7c0.3,0.7,0.1,1.5,0.5,2.2c0.4,0.8,1.2,1.3,2.1,1.3c1.9,0,2.5-1.9,2.9-2.9l0.1-0.3c0.6-0.8,1.1-1.7,1.4-2.6
		c0.3-0.9,0.5-1.7,0.6-2.4c0.2-0.9,0.3-1.6,0.8-2.3c1-1.5,2.3-5.1,3-9c0.3-1.6,0.6-3.7,1-5.8c0.6-3.5,1.2-7.1,1.5-8.5
		c0.3-1.1,1.2-0.3,2-0.3l0.8-0.1c1.3-0.4,2-1.5,2.6-2.3l0.2-0.3l0.4-0.2l0.3,0c0.3,0.1,0.5,0.1,0.9,1.3l0.1,0.5
		c0.4,1.3,0.9,3,2.5,3.4c0.9,0.3,1.3,0.9,3,4.3c0.3,0.5,0.6,1.1,0.9,1.7c1.3,2.6,1.6,4.4,1.9,6.2c0.1,0.9,0.3,1.8,0.5,2.7
		c0.6,2.2,2.1,3.5,3.3,4.6l1.3,1.3c1.5,1.9,2.4,4.6,3,6.7c0.3,1.1,0.6,2,0.9,2.7c0.7,1.6,2.2,3.7,3.2,5.3c0.4,0.6,0.8,1.2,1,1.5
		c0.6,1,1.2,4.4,1.4,5.7l0,0.1c0.1,0.9,0.6,1.6,1,2.4c0.2,0.4,0.3,1.7,0.4,2.4l0.1,0.9l0,0.6c0,2,0.2,3.4,1.1,4.2
		c0.6,0.6,1.4,0.9,2.2,0.9c1.6,0,2.9-1.2,3.2-2.8c0.1-0.4,0.2-1.7,0.2-3l0.1,0.1c0.3,0.3,0.7,0.7,1.3,0.9l1,0.2
		c0.7,0,1.5-0.3,1.9-0.9c0.6-0.8,1.2-2.1,0.1-7.3l0-0.1c-0.2-0.9-0.7-2.3-1.5-4.5c-1-2.8-2.5-6.7-3.3-10.4c-0.9-3.8-1.3-6.4-1.5-8.7
		c-0.2-1.4-0.3-2.7-0.6-4c-0.4-2.3-1.5-3.8-2.5-5.3c-0.6-0.9-1.2-1.8-1.8-3c-0.6-1.3-0.7-2.4-0.8-3.5c-0.1-1.4-0.2-2.8-1.3-4.5
		c-1.3-2.1-3.5-2.5-5.3-2.9c-1-0.2-2-0.4-2.7-0.9c-1.2-0.8-1.9-1.8-2.8-3.3c-0.6-0.9-1.2-1.8-2-2.9c-2.2-2.7-3.3-4.2-4-5.8l-0.2-0.5
		c-0.2-0.7-0.4-1.5-1.1-2.1c-1.1-1.1-1.8-2.2-2.2-3.2c-0.4-1.3,0.5-3.1,1.5-4.3c0.2-0.3,1.2-0.5,2-0.7c0.9-0.2,2-0.5,3-1l0.3-0.1
		c3.2-1.6,6.4-3.4,7.8-4.9c0.7-0.8,2-2.6,2.5-4c0.7-2.4,1.5-4.5,2.5-6.3c0.8-1.4,2.4-2.4,4.3-3.4c0.9-0.5,1.9-1.1,2.9-1.7
		c3.2-2.2,3.9-3.2,5.4-6.2c0.8-1.5,1.3-2,2-2.5c0.5-0.4,1.1-0.8,1.7-1.6c0.4-0.5,1.4-1.3,2.3-2l0.7-0.4c1-0.5,2.7-1.5,2.9-3.4
		c0.1-0.8-0.1-1.5-0.6-2.1C258.6,72.1,257.3,72.1,256.9,72.1z"/>
	<path class="st1" d="M606.1,120.2c0.2,1.3,1.3,2.3,2.3,2.7c1.1,0.5,2.3,0.5,3.4,0.6l1,0c0.5,0,0.7,0.1,1.3,0.5
		c0.5,0.3,1.1,0.7,2.2,1.2l1.4,0.7c1,0.5,1.9,1.1,2.9,1.1l0.2,0l0.8-0.2l0.7-0.1l-0.2,1.3c-0.2,0.6-0.5,1.2-0.9,1.8
		c-0.4,0.8-0.8,1.6-1,2.4c-0.3,1.2-0.3,2.3-0.3,3.3l0,1.2l-0.3,0.6c-0.5,0.7-1.2,1.8-1.3,3.6c-0.1,1.5,0.7,3.5,1.8,6l0.3,0.7
		c0.1,0.3,0.1,0.4-0.3,1.2c-0.3,0.7-0.8,1.6-1,3c-0.6,3.4,0.2,5.1,0.7,6.3l0.3,0.7c0.2,0.8,0.2,3.9,0.2,5.8v1.2
		c0,1.6-0.1,2.1-0.4,3.2c-0.1,0.4-0.2,0.9-0.4,1.5c-0.2,1-0.4,1.6-0.5,2.1c-0.3,1.2-0.4,1.7-0.6,3.6c-0.1,1.1-0.3,4.6-0.1,6.4
		c0.2,2.2,0.7,4,1.4,5.3l0.7,1l0.1,0.2c0.4,0.5,1,0.7,1.6,0.7l0.3,0c0.7-0.1,1.3-0.5,1.6-1.2l0.1-0.2c0.2-0.4,0.5-1.2,0.7-2.4
		c0.2-1.5,0.8-3.2,1.3-4.6l0-0.1c0.3-0.9,0.6-1.7,0.8-2.3l0.3-1.2c0.4-1.4,0.9-3.1,1-5.3c0-1.8,0.2-3.7,0.5-5.6
		c0.2-2,0.5-4.3,0.6-7.1c0.2-4,0.9-4.9,1.4-5.5l0.5-0.8c0.7-1.4,1-3,1.1-5.2c0-1.8-0.2-3.2-0.5-4.3c-0.1-0.6-0.2-1.2-0.2-1.6
		c0-0.4,0.2-0.9,0.5-1.6c0.4-1,0.9-2.2,1.2-3.9c0.3-1.9,0-4-0.1-5.8c-0.1-1.5-0.3-2.8-0.1-3.4l0.9-0.6c0.6,0,1.4,0.3,1.9,0.8
		l0.4,0.4c1.2,1.1,2.4,2.2,4.4,2.2h0.1l1.5,0.1c0.7,0.1,1.3,0.1,1.8,0.1c1.1,0,1.9-0.2,2.7-0.5l0.5-0.1c0.7,0,1.6,0.7,2.5,1.3
		c0.7,0.5,1.4,1,2.1,1.3c1.6,0.7,3.3,1.1,4.7,1.1c1.3,0,2.2-0.3,2.9-1l0.1-0.1l0.6-1.5l-0.6-1.5l-0.1-0.1c1.5-0.6,4.6-1.8,3.9-4.5
		l0,0c-0.7-2.6-5.2-4.4-7.4-4.4h-0.1c-1.7,0-1.8-0.2-2.2-0.9c-0.9-1.3-2.9-2.3-5.2-2.7l-1.3-0.1c-1.5,0-2.8,0.5-3.7,0.9l-0.1-1.2
		c-0.6-2.3-2.9-2.3-4-2.3h-0.1l-1.4,0.1c-0.8,0.1-1.6,0.2-2.3,0.3c-0.7,0.1-1.4,0.2-1.9,0.2c-0.8,0-0.9-0.2-1-0.4
		c-0.1-0.5,0.8-2.8,1.4-4.3c0.6-1.5,1.2-3.1,1.5-4.4c0.2-0.9,0.5-1.9,0.7-2.8c0.7-2.5,1.3-4.8,1.4-6.9c0-1.6,0.6-3,1.2-4.3
		c0.6-1.4,1.2-2.8,1.3-4.6c0.2-3.5-0.7-4.6-2.2-5.9l-0.5-0.5c-0.7-0.7-0.9-1.4,0-3c0.4-0.8,0.9-1.6,1.4-2.3c0.9-1.4,1.9-3.1,3.1-5.5
		c1.2-2.5,1.3-4.4,0.5-5.7c-0.4-0.7-1.3-1.5-3.3-1.6h-0.1c-2.8,0-5.3,2.3-6.4,5.8c-0.4,1.2-0.8,1.9-1.3,2.5c-0.4,0.6-0.8,1.1-1.1,2
		c-0.4,1.3-0.9,2-1.4,2.7c-0.4,0.7-0.9,1.4-1.5,2.5c-0.9,2-1.2,4.9-1.4,7.5l-0.1,1c-0.1,0.7-0.6,1.9-1.2,3.4l-0.6,1.4
		c-0.8,2-0.9,5-0.9,7.7l0,0.5c0,0.6-0.4,1.3-0.8,2.3c-0.3,0.6-0.6,1.2-0.8,1.8c-0.9,2.2-0.6,4.6-0.5,6.4l0,0.2
		c0.1,1.3-0.2,2.4-0.9,3.3l-1.4,0.1c-0.8,0-1.9,0-3,0.3c-1,0.3-2.1,0.9-3.4,2.1l-1,0.2l-0.9,0c-1.1,0-2.4,0.2-3.5,1.2
		C606,118.4,606,119.5,606.1,120.2z"/>
	<path class="st1" d="M367.4,87.1l-1.4-0.3l-1.6,0.3c-2.3,0.9-3.2,3.1-3.9,4.7l-0.1,0.3l-0.5,1.1c-0.6,1.1-1.2,2.4-1.3,3.9l-0.1,1.4
		c0,0.8,0,1.7-0.2,2.2l-0.4,1c-0.5,1.4-1.1,2.8-1.2,4.7c0,0.7-0.1,1.3-0.2,1.7l-0.2,0.6c-0.5,1.2-0.9,2.5-1.7,4
		c-0.5,1-0.9,2.6-1.3,5c-0.3,1.5-0.7,3.7-1,4.1c-0.4,0.5-1.1,0.9-1.8,1.3c-0.6,0.3-1.2,0.7-1.8,1.2l-1.1,1.1l-0.6,0.6
		c-1.1,0.4-3.1,1.9-4.1,3.7c-0.8,1.3-1.6,2-2.6,2.7c-1.2,0.8-1.8,2.7-1.9,4.1c-0.1,0.8-0.5,1.8-0.9,2.6l-0.7,0.8l-0.4-1.4
		c0-0.8,0.5-1.4,0.7-2.1c0.1-0.7,0.2-1.3,0.3-2l0-1.2l0-1.5l0.7-1.5c0.2-0.7,0.5-1.4,0.7-2.2c0.3-1.2,0.3-2.4,0.3-3.6l0.1-1.6
		l0.1-0.9c0.1-1,0.2-2.1,0.5-3.4c0.2-0.8,0.4-1.7,0.6-2.5c0.6-2.7,1.3-5.5,1.3-7.7c0-1.4-0.2-2.5-0.7-3.4l-0.1-0.1
		c-0.3-0.5-0.9-2-2.6-2.1l-0.2,0c-2,0-2.9,2-3.3,3.1l-0.2,0.4l-0.6,1c-0.5,0.9-1.2,1.9-1.5,3.1c-1.3,3.9-2.4,6.8-3.1,8
		c-0.4,0.7-0.7,1.6-0.9,2.4c-0.1,0.6-0.3,1-0.4,1.6l-0.3,1.2l-0.4-1.1c-0.3-0.9-0.5-1.8-0.9-2.5c-0.8-1.3-1.8-2-3.1-2l-1.1,0.1
		l-0.5,0.1c-0.3,0-0.5-0.2-1-1.7c-0.2-0.6-0.4-1.5-0.6-2.5c-0.3-1.6-0.7-3.5-1.5-5.1c-1.1-2.3-2.9-3.1-4.3-3.1
		c-0.7,0-1.2,0.2-1.7,0.5l-0.2,0.2c-0.9,0.9-1,2.2-0.9,4.4l0,0.7c0,1-0.2,4-0.5,5c-0.2,0.8-0.1,1.9,0.1,4.9c0.1,1.5,0.3,3,0.2,3.8
		c-0.1,2.3-1.1,3.8-1.9,5.1l-0.4,0.7l-0.3,1l-0.5,0.3l-0.6-1.3l-0.9-1.6c-0.7-1-1-3-1.2-4.7c-0.1-1.3-0.3-2.5-0.7-3.4
		c-0.9-2-1.4-3.9-1.6-5.7c-0.1-0.5-0.1-1.2-0.2-1.8c-0.2-2.3-0.4-5.5-1.3-7.6c-0.5-1.2-0.5-2.6-0.5-4.3c0-1.5,0-3.2-0.4-4.9
		c-0.2-0.8-0.4-1.8-1.2-2.7c-0.6-0.6-1.3-0.9-2-0.9c-2,0-3.4,2-4,3l0,0.1c-1.1,1.6-1.5,3.5-1.9,5.1l-0.1,0.7c-0.4,1.6-0.7,3.2-1.1,4
		c-0.3,0.5-0.5,0.7-1.2,0.7l-0.7,0l-1.5,0.2c-1.7,0.7-2.7,3.1-3.4,5c-0.2,0.6-0.6,1.5-1,2.5l-0.4,0.9c-0.4,0.9-0.8,1.9-1.1,3
		c-0.4,1.6,0.1,3.1,0.4,4.3l0.2,0.6c0.4,1.4,1,3.6,0.7,4.2c-0.2,0.5-0.4,1.1-0.8,2.5c-0.5,1.8-1.2,4.2-2.2,6.8
		c-0.7,1.8-1,2.4-1.6,3.5c-0.3,0.6-0.7,1.3-1.3,2.4c-1.9,3.6,0.4,7.6,1.1,8.9l0.2,0.3c0.1,0.2,0.1,1.3,0,2c-0.1,1.8-0.2,3.6,0.8,4.7
		c0.6,0.7,1.4,1,2.3,1c1.1,0,2.4-0.7,2.9-2.5c0.3-1.1,0.9-2.1,1.6-3.1c0.4-0.6,0.8-1.2,1.1-1.8c0.6-1.3,0.5-2.1,0-3.2l-0.4-1.1
		c-0.3-1.1,1-2.5,1.8-3.5l0.2-0.2c1.2-1.4,1.3-2.5,1.3-3.5c0.1-0.7,0.1-1.5,0.6-2.7c0.3-0.7,0.6-1.4,1-2.1c0.3-0.4,0.9-2,1.5-1.7
		l0.4,0.4l1.4,1.2l0.7,0.5c0.7,0.5,1.9,3.1,2.3,5.2c0.2,0.9,0.6,2.3,1.1,3.7l0.5,1.6l0.2,0.8l0.1,0.4c0.3,0.9,0.6,2.1,1.4,3.1
		c0.4,0.5,0.7,1.2,1,2c0.4,1.2,0.9,2.6,1.8,3.8c0.8,1.1,1.8,1.3,2.4,1.3c1.9,0,3.5-1.8,3.7-4.2c0.1-1-0.1-2.4-0.3-3.9
		c-0.2-1.2-0.4-2.6-0.5-4l-0.1-1.3c-0.1-1.3-0.2-2.5-0.1-4l0-1.2l0.5-0.4l0.8,1.4l0.8,1.2c0.1,0.3,0.1,1.6,0.1,2.5
		c0,1.2,0,2.3,0.1,3.1c0.3,1.3,1.3,2.6,2.4,3.3l1.5,0.4c2.9,0,4.4-3.9,4.4-5.5c0-0.7-0.2-1.2-0.3-1.6l-0.1-0.4l0.1-0.7
		c0.1-0.4,0.3-0.9,0.4-1.7c0.3-2.2-0.1-4.8-0.8-6.2l-0.5-1.3v-0.8c0.1-0.7,0.8,0.1,1.1,0.3l1.1,0.9l1.2,1.1l0.5,0.8l1,1.7l0.7,1
		l0.8,1.2c0.5,1.2,1.2,2.4,1.9,3.5c0.8,1.4,1.6,2.8,2.1,4.1l0.4,1.1c0.6,1.9,1.3,4,3.5,4.2l0.3,0c2.5,0,2.8-2.5,2.9-3.7
		c0.1-0.5,0.1-1.2,0.3-1.9l0.4-1.4c0.4,0,0.4,2.2,1.1,3.8c0.5,1.1,1.1,2.2,2.2,3c1.2,1,2.1,1.3,3.2,1.6c0.6,0.2,1.3,0.4,2.1,0.7
		l0.5,0.3c0.8,0.5,2.1,1.3,3.9,1.4l0.6,0l1.2,0h0.1c0.9,0,1.5-0.1,2-0.3c1.3-0.5,2.5-1.7,3.8-3.7l0.8-1.5l0.1,0.6l0.2,0.9
		c0.2,1,0.4,2,0.7,3.2c0.3,1.2,0.7,2.4,1.9,3.7c1.1,1.1,2.4,2.2,4.1,2.2c0.9,0,1.8-0.3,2.6-1c1.7-1.4,2.4-3.3,2.1-5.5
		c-0.3-1.8-0.6-3.6-1.1-5.2c-0.7-2.4-1.6-4.5-2.3-5.9l-0.3-0.7c-0.9-2.2-0.7-5.9-0.6-8.3c0-0.7,0.1-1.2,0.1-1.7
		c0-0.8-0.1-1.7-0.2-2.6c-0.2-1.6-0.3-3.2,0-5.2c0.2-1.2,0.6-3.1,1.4-5.8c0.4-1.6,0.9-3.2,1.3-4.6l0.1-0.3c0.2-0.7,0.4-1.4,0.5-1.9
		c0.7-2.6,0.4-4.5-1.1-6.6c-0.9-1.2-0.5-3.1-0.2-4.9c0.3-1.8,0.8-3.5,1.1-4.5l0,0l0.5-1.5c0.5-1.2,0.9-2.5,1.1-3.8
		C369.9,89.3,369,87.8,367.4,87.1z M296.3,124.7l-0.2,0.3l-0.6-0.2l-0.1-0.1l-0.9-0.8l-1.5-0.4l-1.4,0.3l-0.9,0.4l0-1.2
		c0.3-1.3,0.7-2.6,1.4-3.7c1-1.8,1.6-3.8,2-5.3l0.7-1.5l0.7,1l0.2,1.6l-0.1,0.5c-0.2,1.3-0.6,3.4,0.4,6c0.3,0.7,0.4,1.5,0.4,2.2
		L296.3,124.7z M355.5,139.6l-1.2,1.5l-0.4,0.4l-1,1.3c-0.5,0.8-1.2,1.7-2,2.1l0,0l-0.6,0.1c-0.9,0-1.9-0.7-2.4-1.4
		c-0.4-0.5-1.1-2.3-0.2-3.7c0.7-1.2,0.8-2,0.8-2.8c0-0.2,0.2-0.7,0.9-1.3l1.1-0.5c1.3-0.5,2.1-1.3,2.8-2l0.2-0.2
		c0.2-0.2,0.9-0.9,1.5-0.9l0.2,0c0.8,0.1,1,1.4,1.1,2.2C356.4,136.6,356.2,138.3,355.5,139.6z"/>
	<path class="st1" d="M604.2,178.3L604.2,178.3l1.2,0.2c1.8,0,3.3-1.2,3.7-2.9c0.2-0.7,0.1-1.6,0-2.6l-0.1-0.8
		c-0.1-1.4-0.9-3.1-1.8-4.9c-0.9-1.8-1.8-3.7-2-5.2c-0.1-0.8,0-2.5,0.1-4.3c0.1-2.6,0.3-5.5,0-7.5c-0.5-3.4-1.6-5.3-4.3-9.3
		c-1.4-2.1-1.3-2.5-1.1-4.2l0.1-0.7c0.6-3.9-1.4-6.2-3-8.1l-0.5-0.7c-1.3-1.6-2.8-3.5-5.2-4.4c-0.6-0.2-1.1-1.2-1-1.9
		c0.1-0.6,0.9-0.9,2.1-1.4l1.6-0.7l0.5-0.3c1.3-0.7,2-1.1,3.7-2.7c0.9-0.8,2-1.1,3.1-1.4c1-0.2,2.1-0.5,3.1-1.2
		c2.2-1.4,5.1-4.6,5.7-7c0.5-2,0.1-6.6-1.5-8.6l-0.9-1.1c-0.9-1.1-1.6-1.9-2.1-3.1c-0.2-0.6-0.5-1.2-0.9-1.7l-1.1-1.2l0.4-1.3
		c0.5-0.8,1.2-1.9,1-3.3c-0.3-2-2.6-4.1-4.6-4.6l-1.2-0.1c-0.6,0-1.2,0.1-1.8,0.2c-0.6,0.1-1.3,0.2-2,0.2l-0.9-0.1
		c-1.4-0.1-2.3-0.7-3.2-1.2c-0.8-0.4-1.5-0.9-2.3-1l-0.4,0c-2,0-3.9,1.7-5,3.3c-0.4,0.6-1.1,1.3-1.8,2.1c-1,1.1-2.1,2.2-2.8,3.4
		l-0.8,1.6c-0.3,0.5-0.7,2.2-1.1,0.9l-0.5-1.3c-0.4-0.5-0.4-2.9-0.5-4.6c0-0.9,0-1.8-0.1-2.6c-0.1-1.5-0.2-4.3-2-5.8
		c-0.6-0.5-1.3-0.7-2.1-0.7l-1.7,0.3c-1.6,0.7-2.4,2.3-2.3,4.4l0.1,0.9c0.1,1.5,0.3,3-0.2,4.9c-0.6,2.2-0.4,4.3-0.4,5.4l0,0.5
		c0,0.4-0.1,1.5-0.6,4c-0.2,1.1,0.1,2.3,0.3,3.3l0.3,1.4c0,1.1,0.1,2.3-0.1,3.4c-0.1,1-0.4,1.9-0.7,3c-0.5,1.6-1,3.5-1.1,5.8
		c-0.1,4.7,1.9,6.1,3.9,7l0.3,0.1c0.5,0.3,0.7,0.8,0.7,2.9c0,0.9-0.4,1.7-1,2.8c-0.4,0.9-0.9,1.8-1.3,3c-0.8,2.2,0.2,4.3,1.1,5.9
		c0.4,0.8,0.8,1.5,0.9,2.1c0.2,1.2-0.1,2.4-0.5,3.8c-0.2,0.9-0.5,1.8-0.6,2.9c-0.3,2,0,3.5,0.3,4.9c0.2,0.8,0.3,1.5,0.3,2.2
		c0,0.8-0.1,1.6-0.3,2.5c-0.2,1.5-0.5,3.2-0.2,4.9c0.2,1.9,2,2.9,3.7,2.9c1,0,2-0.4,2.6-1c1.9-1.9,1.8-5.7,1.8-8.8l0-0.6
		c0-1.3,0.7-2.7,1.3-4.2c0.6-1.3,1.3-2.8,1.6-4.4c0.3-1.7,0.3-3.1,0.2-5.6c0-1.1-0.1-2.5-0.1-4.3c0-0.7-0.1-1.4-0.2-2l-0.1-1.4
		c0.1-1,0.3-2.2,0.8-3.1c0.2-0.5,0.6-0.8,0.8-0.1c0.2,0.8,0.2,1.7,0.2,2.5l0,0.9c0,1,0,2.2,0,3.1c0,1.2,0,2.2,0.1,2.9
		c0.3,2.1,1.3,2.9,2.3,3.7l1.3,1.1c1.3,1.3,4.6,6.1,5.8,8.2c0.6,1,1.6,2.1,2.7,3.2l1.3,1.4c1.5,1.8,1.3,4.8,1.1,7.2
		c-0.1,2.1,0.5,3.4,1,4.6l0.5,1.2c0.6,1.7,0.9,2.5,1.4,5.8C599.7,174.8,602.2,177.7,604.2,178.3z M586.2,113.7L586.2,113.7
		L586.2,113.7c-0.6,0-0.9-0.4-1.6-1.8l-0.4-0.8c-1-1.8-2.3-3-3.3-3.9l-1.2-1.4c-0.2-0.7,0-1.7,0.4-2.4l0.6-0.5
		c1.3-0.2,2.8-0.8,3.9-3.7c0.9-2.3,1.7-3.4,3.2-4.4c0.7-0.5,1.3-0.6,2-0.6l0.9,0l1.1,0l1.3,0l1.8,0.1c1,0.3-0.4,1-0.9,1.4
		c-2.2,1.6-3.4,2.7-3.5,4.1c-0.1,1.4,0.1,2.7,0.4,4c0.2,0.9,0.4,1.9,0.4,2.8C591.4,109.8,587.3,113.3,586.2,113.7z"/>
	<path class="st1" d="M557.7,125.8L557.7,125.8c-0.4-0.8-1-1.7-2-2.7c-0.5-0.5-0.9-1.3-1.2-2.3c-0.2-1-0.2-2.1,0.8-4.3l0.6-1.4
		c0.3-0.6,0.6-1.3,0.9-2c0.9-1.8,0.8-4.3,0.8-5.9l0-1c0.1-3.5-1-5.4-1.7-6.7l-0.3-0.6c-0.1-0.3-0.2-0.9-0.3-1.6
		c-0.2-1.4-0.4-3.1-1.7-4.5l-1.2-1.2c-1.4-1.5-2.9-3.1-4.6-3.8c-0.9-0.4-1.5-0.7-2.1-0.9c-1.3-0.6-2.2-1.1-4.6-1.5
		c-0.7-0.1-1.4-0.2-2-0.2h-0.1c-3.7,0-6.5,1.9-7.8,3.1c-1.7,1.5-5.3,5.7-6.4,8c-0.5,1-1,1.3-1.9,1.8l-1.1,0.7l-0.2,0.1
		c-1.5,1-3.2,2.2-4.8,4.8c-1,1.7-1.3,3.9-1.7,5.8c-0.2,1.2-0.4,2.3-0.7,2.9l-1,1.4c-1.1,1.3-2.6,3.1-2.9,6c-0.3,3,0.9,4.6,1.9,6
		l0.6,0.9c1.1,1.9,1.8,5.8,1.4,8.1c-0.3,2.1-0.5,7.1-0.1,10.1c0.3,2.5,2,4.3,4.2,4.3l0.9-0.1l1-0.1c1.3,0,2.2,0.7,3.2,1.4l0.8,0.6
		c0.9,0.6,2,0.9,2.8,1.1l1.3,0.5l0.2,0.5c0.4,1,1,2.8,3.2,3.4l1,0.1c1.4,0,2.9-0.7,4-1.1l1-0.4l0.5,0l1.1,0.2l1.5,0.2l1.4-0.2
		c3.9-1.1,9-6,10.3-7.9l0.7-1c0.9-1.3,1.4-2,2.9-3.5c1.4-1.4,4.2-5.4,4.5-8.5c0.3-3-0.3-4.8-2.4-7.7L557.7,125.8z M540.5,138.1
		l-0.1,0.1l-1.1,0c-0.6-0.1-1-0.1-1.4-0.1l-1.5,0.2l-0.9,0.4c-1,0.2-0.8-1.5-1-2.1l-0.9-1.6l-0.7-1.1c-1.3-2.3-2.7-3.4-4.3-3.4
		l-0.2,0l-0.5,0c-0.4,0-1.3,0-1.8-2.4c-0.5-2.9-0.8-6.7-0.1-8.3c0.6-1.4,1.5-2.2,2.4-3.2c0.8-0.8,1.7-1.6,2.3-2.8l0,0
		c0.4-0.8,0.4-1.8,0.3-4.2c0-0.9-0.1-1.8,0-2.3c0.1-1.1,1.8-3.4,2.8-4l1.9-0.7c0.6,0.3-0.2,2-0.5,2.4c-0.3,0.4-0.7,1-0.9,2
		c-0.3,1.1-0.3,2.4-0.2,3.9c0.1,1.7,0.8,2.9,2.2,4l0.7,0.6c0.5,0.5,1.2,1.1,2.1,1.6c1.8,1,1.8,1,1.3,3.5l-0.1,0.5
		c-0.1,0.7-0.5,1.5-0.8,2.3c-0.7,1.7-1.6,3.5-1,6c0.3,1.4,0.9,2.6,1.3,3.6c0.3,0.7,0.6,1.4,0.7,1.9c0.2,0.7,0.4,1.4,0.4,2.2
		L540.5,138.1z"/>
	<path class="st1" d="M744.5,100.9L744.5,100.9L744.5,100.9c-0.5-0.4-1.2-0.7-2-0.9l-0.3,0c-0.9,0-1.8,0.5-3.1,1.2l-1.1,0.6
		c-0.9,0.4-2.3,1-4.4,1.9l-1.3,0.5c-2.1,0.9-3.5,2.3-4.8,3.6l-1.6,1.5c-1.8,1.6-3.4,2.4-5.7,3.5c-1.4,0.7-2.3,1.5-3.3,2.3
		c-0.8,0.7-1.6,1.4-2.5,1.8c-0.5,0.2-1.1,0.4-1.9,0.6c-1.6,0.4-3.8,1-6.3,2.5c-1.5,0.9-2.9,1.2-4.6,1.6c-0.8,0.2-1.6,0.4-2.6,0.6
		c-2.8,0.8-3.7,2.3-4.6,3.7l-0.5,0.8l-0.7,0.8l0.5-1.8c0.5-1.2,1.1-3.1,0.4-5.3c-0.7-2.2-2-3.7-3-4.7l-0.6-0.8
		c-0.3-0.4-0.4-0.7-0.4-2c0-1.3-0.8-2.3-1.5-3.2l-0.7-1.1c-0.3-0.9-0.1-3.3,0-5.5c0.1-1.2,0.1-2.4,0.1-3.4c0-2.8-0.4-7.5-1-9.4
		c-0.4-1.3-1.5-2.3-2.5-3.3c-0.7-0.6-1.3-1.2-1.6-1.8c-0.1-0.2-0.4-1-0.6-1.7c-0.3-0.9-0.7-2-1.1-3.1c-0.4-1-0.7-1.9-1.1-2.9
		c-0.5-1.3-1.1-2.7-1.2-3.1l0-0.1c-0.2-1.6-0.5-4.9-1.7-7.4c-0.5-1-0.8-2.2-1.3-3.4c-0.6-1.8-1.2-3.6-2.1-5.2
		c-0.5-0.9-1-1.9-1.4-2.8c-0.6-1.2-1.1-2.4-1.7-3.2l-0.2-0.2c-0.4-0.5-1-0.8-1.6-0.8l-0.4,0c-0.8,0.2-1.4,0.7-1.6,1.5l-0.1,0.3
		l-0.2,0.9c-0.1,0.8,0.1,1.9,0.3,3.5c0.1,0.8,0.3,1.5,0.3,2.2c0.2,1.8,0.1,3.6,0.1,5.4c0,1-0.1,2-0.1,3l0.1,1.6
		c-0.2,0.7-0.8,0.4-1.4,0.7l-1,1l0,0.1c-0.4,0.9-0.6,2.5-0.6,6c0,2.1,0.5,3.8,0.9,5.2c0.3,0.9,0.5,1.8,0.5,2.4
		c0,1.6,0.1,10.1,0.3,14.4c0.1,2.6,1.2,5,2,7.1c0.5,1.1,0.9,2.2,1.2,3.2c0.8,2.9,0.9,7.7,0.9,8.7c-0.1,2.2,1.4,3.5,1.9,3.9l0.1,0.1
		c0.5,0.5,1.1,0.7,1.9,0.7c0.5,0,1-0.1,0.8,0.6c-0.3,1-0.4,2.1-0.7,3.1c-0.4,1.9-0.9,3.8-1.5,5.7c-0.5,1.3-0.8,2.4-1.2,3.4l0,0
		c-0.4,1.2-0.8,2.3-1.2,3.5c-0.7,2.5-0.6,3.7-0.3,4.9l0.1,1.1l0.1,1.3l0.1,1.2l-1,0.7c-1.2,0.5-2.4,1-3.6,1.4l-1.5,0.6
		c-0.7,0.2-1.6,0.5-2.5,0.8c-3.7,1-6.4,1.9-7.1,3.9c-0.7,2.2,0.9,3.2,1.9,3.6l-1,0.6c-1.2,0.7-2.7,1.6-4.2,2.6
		c-2.7,1.9-6.1,5.1-6.9,7.3c-0.7,1.9,0.2,3.4,1,4.7c0.4,0.7,0.8,1.3,0.9,1.8c-0.1,0.3-0.7,1.8-4.7,5.5c-0.9,0.9-2,1.8-3.1,2.7
		c-1.2,1-2.4,2-3.3,2.9c-0.5,0.5-0.9,1.2-1.1,1.9c-0.3,0.8-0.2,1.4-0.9,1.8c-0.8,0.4-2.1,1-3.6,2.3c-1.5,1.2-2.4,2.9-3.2,4.3
		c-0.5,0.9-1,1.8-1.5,2.2c-1.1,1.1-2.9,2-4.9,3c-1.1,0.6-2.4,1.2-3.5,1.9c-2.6,1.6-3.7,2.6-5.7,4.4l-0.9,0.8
		c-0.8,0.7-1.6,1.4-2.4,2.1l-0.1,0.1c-2.5,2.2-3.6,3.2-4.1,3.8c-2.3,3.3-2.4,4.6-2.3,5.4l0,0.2c0.4,1.6,1.6,2.6,3.1,2.6l0.6,0
		c2-0.3,3.2-1.5,4.3-2.6l0.2-0.2c0.5-0.5,1.2-1,1.8-1.6c0.9-0.7,1.7-1.4,2.5-2.2l0.2-0.2c1.4-1.4,4-4.1,6.8-5.3
		c1.3-0.5,3.5-1,5.7-1.4c2.6-0.5,5.1-1,6.7-1.7c1.9-0.9,5.8-4.4,8.3-7c0.8-0.9,1.7-1.9,2.5-2.8c1.4-1.6,2.7-3.2,3.5-3.7l0.8-0.6
		c1.5-1,3.6-2.4,4.4-5c0.5-1.7,3.2-5.7,4-7c0.5-0.8,2.4-2.9,3.8-4.4l1.1-1.2c0.7-0.7,1.3-1.4,1.8-2.1c0.6-0.7,0.8-1.6,1.1-2.7
		c0.2-0.9,0.5-1.8,0.9-2.9c0.5-1,2.1-3.3,7.7-6.8c1.2-0.7,2.6-1.8,4.1-2.9c1.3-1,2.7-2,4.1-2.9c3.1-2.1,3.9-3.9,4.6-5.6l0.4-0.9
		c1-2,5.7-6,8.4-6.9l0.8-0.2c2.5-0.8,5.5-1.8,9-4.8c3.4-3,4.1-5.1,4.6-6.6l0.5-1.2c0.5-0.7,3.6-2.8,5.4-3.5c1.8-0.7,6.4-3.4,7.9-5.3
		c0.8-1,3.9-2.8,5.6-3.7c0.8-0.5,1.3-0.7,1.6-0.9c0.9-0.6,2.5-1.9,4.9-4c2.1-1.8,8.1-7.4,9.2-8.5l1-1.3l0-0.1
		C745.5,102.5,745.3,101.5,744.5,100.9z"/>
	<path class="st1" d="M513.5,198L513.5,198c-0.2-0.7-0.3-1.4-0.4-2l-0.2-1.1c-0.1-0.7-0.3-1.4-0.3-2.1c0-1-0.1-1.9-0.1-2.5
		c-0.3-2.7-1.3-4.3-2.9-6.8l-0.6-0.9c-1.7-2.7-2.3-4.4-1-10c1.3-5.3,0.6-7.3-1.9-10.4c-2.2-2.6-2.3-3.4-2-6l0.1-1.1l0-0.2
		c0.3-2.7,0.5-5.1-0.3-7c-0.2-0.6-0.6-1.2-0.9-1.8c-0.9-1.7-2-3.9-2.2-6.5c-0.2-1.8,0.5-3.1,1.3-4.8c0.6-1.3,1.4-2.8,1.8-4.7
		c1.3-5.1,0.9-7.8,0.3-10c-0.6-2.1-0.7-2.3-0.1-4.9c1.1-4.7,1.2-7.3,0.5-8.8l-1.1-1.3c-0.6-0.5-1.3-1.2-1.6-3.2
		c-0.1-0.8,0-1.7,0.1-2.6c0.1-0.9,0.3-1.8,0.2-2.6c-0.1-0.6-0.4-1.2-0.6-1.8c-0.2-0.6-0.1-1.3-0.1-1.9c0.1-1.2,0.2-2.8-0.1-4.5
		c-0.4-2.4-1.3-4.6-2.1-6.6l0-0.1c-0.3-0.7-0.5-1.3-0.7-1.9c-0.3-1-0.3-3.3-0.4-5.8c0-2.8,0-6-0.4-9.2c-0.5-4.4-2.2-10.7-3.1-13.7
		l-0.3-1c-0.5-2-0.3-5.8,0-9.8l0.1-1.5c0.3-4.3,1-7.8,2.4-11.1c0.4-0.9,1-2.3,1.7-4c1.6-3.7,3.7-8.8,4.8-11.8c1-2.7,0-4.8-0.3-5.3
		c-0.8-1.4-1.8-1.7-2.3-1.7l-0.2,0l-0.5,0.1c-1.8,0.5-3.9,2.8-4.9,5.3c-0.9,2.3-1.5,3.1-3.6,5.7c-0.7,0.8-1.3,1.5-1.8,2.1
		c-1.2,1.4-2.1,2.4-2.7,4c-0.3,0.8-0.4,2.1-0.6,3.7c-0.3,2.4-0.6,5.8-1.7,8.3c-0.8,2-2.7,4.6-4.4,6.8c-1.2,1.6-2.3,3-2.8,4.1
		c-1.1,2.3-3.2,9.2-3.9,12.8c-0.2,1.3-0.4,2.3-0.5,3.2c-0.2,1.4-0.3,2.3-0.7,3.1c-0.7,1.5-1.8,4.9-2.3,8c-0.3,1.9-1.1,3.5-2.9,5.5
		l-0.6,0.7c-1.8,1.9-3.7,4.1-4.9,8.7c-0.3,1.1-0.6,2.2-0.8,3.2c-0.4,1.4-0.8,2.8-1.1,4.5c-0.3,1.2-0.4,3.2-0.6,6l-0.1,1.6
		c-0.1,1.1,0,2.3,0,3.6c0.1,1.8,0.1,3.6-0.1,5.3c-0.1,0.9-0.2,1.7-0.3,2.6c-0.1,1.2-0.2,2.3-0.4,3.4c-0.3,1.7-0.7,3.5-1.4,5.1
		l-0.3,0.8l-0.2-0.7l0-0.3c0.1-1.4,0.3-3.1-0.5-4.4c-0.9-1.3-1.2-2.8-1.4-4.9c-0.1-0.9-0.2-2-0.3-3.4c-0.1-1.3-0.3-2.8-0.4-4.4
		c0-0.5-0.1-1.1-0.2-1.7l0-0.1c-0.1-0.7-0.2-1.5-0.2-2c-0.1-2.4,0-5.7,0.1-8.3c0.1-2.3,0.2-3.8,0.1-4.7c-0.1-1.1-0.5-2.2-1.3-3
		l-1.1-0.9l-0.9-0.6l0-2c0.1-1.5,0.2-3.2,0.1-4.5c-0.2-2.2-0.9-3.2-1.8-4.3l-0.6-0.7c-0.7-1-0.4-4.5-0.2-7c0.1-0.7,0.1-1.4,0.2-2.1
		c0.3-4.4-0.6-5.7-2.8-7.5l-0.1-0.1c-1.4-1.1-1.4-1.5-1.4-4c0-2.5,0.8-7.6,2-10.6c0.6-1.5,3.5-9.2,3.7-12.3c0.1-1.2-0.3-2.2-1-3
		c-0.7-0.8-1.8-1.2-2.8-1.2h-0.1h-0.1l-1.1,0.4c-0.7,0.5-1.5,1.5-2.9,3.5c-0.5,0.7-0.9,1.2-1.2,1.7c-0.6,0.8-3.6,4.7-3.8,8.2
		c-0.2,3.1-1.1,6-2.3,7.1c-2.1,2-3.7,4.9-4.2,7.6c-0.1,0.8-0.1,1.7-0.4,2.5l-0.3,0.5l-0.4,0.1l-0.2-1.2l-0.2-1.3l-0.1-0.3
		c-0.2-0.8-0.7-1.4-1.5-1.6l-0.5-0.1c-0.6,0-1.2,0.3-1.6,0.7l-0.2,0.2l-1,1.5l0.1-1.3l0.3-1.6l0-0.4c0.1-0.9-0.4-1.8-1.2-2.1
		l-0.8-0.2l-1.5,0.7l-0.3,0.3c-0.7,0.8-1.9,2.6-3.2,6.5c-0.6,1.6-0.7,3.2-1,5.3c-0.1,0.5-0.1,1.2-0.1,1.9c0,0.7,0,1.5-0.1,1.9
		c-0.1,0.5-0.4,1.8-0.7,3l0,0.1c-0.2,0.8-0.4,1.5-0.6,2.3c-0.3,1.1-0.6,2.4-0.9,3.6c-0.4,1.6-0.8,3.3-1.1,4.5
		c-0.4,1.8-1.1,3.9-1.9,6.2c-0.8,2.3-1.7,4.7-2.3,7.2c-1.4,5.3-0.7,11.4-0.4,14c0.1,1,0.3,2.1,0.5,3.2c0.4,2.2,0.8,4.5,0.7,6.5
		c-0.3,5.7-1.1,9.7-2.4,11.7c-0.5,0.8-1.2,1.7-2,2.8c-1.6,2.1-3.4,4.4-4.3,6.6c-1.4,3.2-1.1,7.7-0.9,10.5l0,0.2
		c0.1,1.6,0.7,3.1,1.3,4.7c0.5,1.4,1.1,3,1.5,4.8c0.9,4.1-0.3,9.3-0.9,11.8l-0.1,0.7c-0.4,1.7,0.3,3.5,0.9,5
		c0.3,0.7,0.5,1.5,0.6,1.9c0.1,0.7,0,1.6-0.1,3.1c-0.1,1.5-0.3,3.8-0.3,6.9c-0.1,6.4,0.4,10.2,3.6,10.7l0.3,0l0.8-0.2
		c0.9-0.4,1.4-1.3,2.2-2.9l0.3-0.5c0.4-0.7,0.9-1.6,1-2.6c0.2-1.7,0.6-3.3,1-5l0-0.1c0.2-0.9,0.5-1.8,0.7-2.9c0.2-1,0.6-1.9,1.1-2.8
		c0.8-1.7,1.7-3.6,1.8-6.7c0.1-1.7-0.3-5.1-0.9-7.9c-0.2-0.8-0.4-1.5-0.5-2.1l-0.3-1c-0.4-2.2,0.3-4.9,2.3-8.7
		c1.1-2.1,2.1-2.9,3.1-3.7c1.2-1,2.3-1.9,3-4.4c0.3-1.2,0.2-2.8-0.1-4.7c-0.2-2.2-0.5-4.9-0.1-7.7c0.2-1.4,0.7-3.5,1.1-5.3
		c0.6-2.6,0.9-4.4,1-5.4l0.1-0.9c0.1-1.8,0.4-4.6,0.8-7.5c0.3-2,0.7-3.8,1.1-5.4c0.5-2.4,0.9-4.4,1-6.1c0.1-2.1-0.4-4.4-0.9-6.6
		c-0.4-1.7-0.8-3.3-0.8-4.6c-0.1-3.2,1-6.9,2.8-13l0.2-0.7c0.3-1.1,0.6-1.9,1.1-2.9l1-1.1l0.2,1.3c0.1,0.7,0.1,1.1,0.1,1.7
		c0,1.5-0.1,3-0.3,4.5l0,0.1c-0.1,1.6-0.2,3-0.2,4c0.2,3.5,3.5,5.9,3.8,6.2c0.8,0.6,1.2,2,1.5,3.3c0.3,1.4,1.5,2.2,2.5,2.9
		c0.9,0.6,1.7,1.1,2,1.9c0.4,0.7,1,3.2,1.5,7.9c0.5,4.5,1.3,6.2,2.3,8.2c0.3,0.6,0.6,1.2,0.9,1.8c1.2,2.8,1.6,4.7,1.6,6.6
		c-0.1,1.9,0.6,3.5,1.1,4.8l0.5,1.3c0.1,0.6,0,1.6-0.2,2.7c-0.3,1.8-0.6,4-0.1,6.3c0.6,2.6,2.3,4.3,4.8,4.6c1.2,0.1,2.1,0.8,2.5,1.2
		c0.3,0.3,0.4,2,0.5,3.2c0.2,2.7,0.4,6,2,8.9c0.8,1.5,1.9,2.4,3.1,2.9l1.4,0.2c1.7,0,3-1.1,3.5-2.8c0.3-0.9,0.3-2.4,0.3-4.8
		c0-2.5-0.1-5.6,0.4-8c0.5-2.5,1.7-4.8,2.7-6.8c0.6-1.1,1.1-2.2,1.4-3.1c0.6-1.7,0.7-4.6,0.8-7.7c0.1-2.5,0.1-5,0.4-7
		c0.3-1.5,1.5-3,2.8-4.7c1.5-1.9,3.4-4.2,4.4-7.3c2-5.7,1.8-7.2,0.9-10.8c-0.7-2.8,0-6.7,0.9-11.3l0.2-0.9c0.3-1.6,0.9-4.9,1.3-4.9
		l0.1,2.4c-0.1,4-0.1,5.8,0.9,7.4c0.3,0.5,0.9,1.1,1.7,1.9c1.4,1.4,3.2,3.1,3.5,4.6c0.2,1.3-0.3,2.9-1,4.7c-0.5,1.4-1.1,3-1.4,4.7
		c-0.3,1.7-0.9,3-1.4,4.2c-0.3,0.7-0.6,1.4-0.7,1.9c-0.3,1.5-0.3,4.3,0,8.4c0.2,2.6,1,4.5,1.5,6.1c0.3,0.9,0.7,1.8,0.8,2.5
		c0.1,0.9,0.1,3.6,0,6.2c-0.1,2.9-0.1,5.6,0,7c0.3,2.5,2.1,9.3,5.5,13.4l0.6,0.7c1.4,1.6,1.7,2,1.7,3.6c0,0.5-0.2,1.1-0.4,1.8
		c-0.3,0.9-0.7,1.9-0.6,3l-0.2,1.3c-0.3,1.3-0.7,3-0.5,4.9c0.2,3.5,2.3,4.5,3.6,5.1l0.8,0.4l0,1.3c-0.1,2.5-0.1,5,0.6,6.8
		c0.7,1.8,2.7,3.1,4.4,4.2c1,0.6,2.2,1.4,2.4,1.9c0.3,0.7,0,3.3-0.3,4.8c-0.2,1.6-0.6,4.7,1.7,5.3l0.6,0.1c0.7,0,1.6-0.3,2.2-1.5
		l0.4,0.8l0.1,0.2c0.4,0.8,1.1,2.5,2.9,2.5l1.4-0.5c0.7-0.5,1.1-1.4,1.1-2.3c0-0.6-0.2-1.1-0.3-1.5L513.5,198z"/>
</g>
<g>
	<path class="st2" d="M146.2,215.1c0.2-1-0.1-2.7-0.8-4.4l-0.4-1.7c-0.2-1.3-2.8-7.3-4.5-9.4l-0.3-0.4c-2.6-3.3-6.3-5.7-6.6-8.5
		c-0.1-0.7-0.1-1.4-0.2-2c-0.1-1.5-0.2-2.8-0.8-3.6c-0.6-0.9-1.5-2.1-2.6-2.9l-1.7-0.8l-0.7-0.3c-1-0.5-4-1.8-5.5-4.8l-0.4-0.8
		c-1-2-1.9-3.8-3-4.2c-1.5-0.5-4.2-1.6-5.2-4.4c-0.3-0.8-0.5-1.6-0.8-2.6c-0.6-2-1.2-4.3-2.2-5.8c-1-1.4-3-2.7-4.3-3.6
		c-0.9-0.6-1.3-0.9-1.6-1.2c-0.5-0.6-1.1-1.9-1.7-3.5c-1.4-3.3-2.8-6.6-6-8.5c-0.8-0.5-1.8-0.9-2.7-0.8c-0.7,0.1-1.4,0.4-2,0.7
		c-0.8,0.3-1.8,0.5-2.4-0.2c-0.6-0.7-1-1.6-1.3-2.4c-0.3-0.7-0.7-1.4-1.1-2.1l-1.2-1.5l-0.6,0l-0.8,1l-1.2,0.7l-0.3,0
		c-0.6-0.1-0.9-0.7-2.7-4.2c-0.7-1.3-1.3-2.6-2-3.8c-0.6-0.9-1.6-2.5-2.8-2.7l-1.4,0.2c-0.6,0-1.2-0.2-1.6-0.7l-0.7-1l-0.8-0.9
		c-1.4-1.4,1-3.1,2.1-3.7c1.1-0.6,2.2-1.1,3.1-1.9c0.9-0.9,1.3-2.1,1.9-3.2c0.7-1.3,1.6-2.2,3-2.7c1.2-0.4,2.4-0.6,3.7-0.7
		c0.8-0.1,1.5-0.2,2.2-0.5c0.7-0.3,1.2-0.8,1.8-1.3c2.7-2.7,3.8-6.6,4.4-10.3c0.2-1.1,0.3-1.8,0.5-2.3l1.2-1.1
		c0.8-0.5,1.6-0.9,2-2.9c0.3-1.1,0.2-2.2,0.1-3.3c-0.1-1.3-0.2-2.5,0.3-3.5c0.3-0.6,0.8-1.1,1.3-1.8c1.3-1.5,3.1-3.6,3.3-7
		c0.1-1.7-0.1-3.2-0.3-4.7c-0.3-2-0.5-4,0.1-6.1c0.5-1.5,0.9-3.2,0.9-4.8c0-1.8-0.7-3.2-2-4.3l-0.1-0.1c-0.9-0.8-1.9-1.6-2.3-3.1
		c-0.1-0.6-0.1-1.7,0.1-3.6c0.2-2.4,0.5-5.6,0-7.7c-0.3-1.2-1.5-2.3-2.4-3.1c-0.7-0.5-1.4-0.9-2.3-1c-1.9-0.1-3.5,1.4-5.4,1.4
		c-2.5,0-3.3-1.6-3.5-2.5c-0.1-0.4-0.1-0.9-0.2-1.5c-0.1-0.9-0.1-1.7-0.3-2.5L84,33.1l-1.3-0.3c-0.6,0-1.3,0.1-1.9,0.2
		c-0.7,0.1-1.5,0.2-2.3,0.2c-1,0-1.7-0.1-2.4-0.5c-1.1-0.5-2.1-1.2-3.2-2c-1.3-0.9-2.5-1.7-3.5-2.1c-1.6-0.6-3.2-1.4-4.7-2.2
		c-1.9-1-3.6-2.3-5.6-3c-2-0.7-4.2-0.8-6.3-0.7c-1.1,0.1-2.1,0.2-3.2,0.5c-1.4,0.4-2.4,1.3-3.6,2.2c-1.3,0.9-2.5,1.9-3.8,2.8
		c-0.7,0.6-1.4,1.1-2.1,1.7c-2.6,2.1-6.1,4.6-9.5,4.6l-1-0.1c-1.3-0.2-2.6-0.6-3.9-0.9c-0.6-0.2-1.2-0.4-1.9-0.3l-1.7,0.5
		c-1.2,0.5-2.4,1.2-3.5,1.9L17,36.8l-1.3,1.4c-2,2.1-2.9,3-3.7,3c-0.7,0-1.3-0.3-1.9-0.5l-1.6-0.6L8,40.6c-0.7,1.1-0.8,2.8-0.7,4.1
		c0.1,1.3,0.5,2.6,1.4,3.5C9.4,49,10,49.5,10.6,50c1.6,1.4,2.6,2.4,2.9,5.9c0.1,2-0.4,4.1-0.9,6.1c-0.7,2.9-1.5,5.8-0.4,8.7
		c0.8,2.1,2.4,3.8,4,5.4c2.2,2.3,4.5,4.7,4.6,8.3c0,2.6-0.6,5-1.1,6.7c-0.2,0.8-0.4,1.5-0.5,1.9c-0.1,1.1,0.2,1.5,0.6,2.1l0.6,1.3
		l-0.1,1.5c-0.2,0.7-0.3,1.2,0.2,2c1.2,2,1.6,3.6,1.4,5.5l-0.2,1.3c-0.3,1.5-0.6,3,0.7,4.9c0.7,1,1.3,1.8,1.9,2.5
		c1.1,1.3,2.1,2.5,2.3,4.3c0.1,0.8-0.1,1.6-0.3,2.3c-0.3,1.1-0.5,2.3,0.1,4.1c0.2,0.4,0.4,1,0.6,1.6c1.2,3.3,3.2,8.7,3.4,13.5
		c0.1,2.9-0.5,5.8-1.7,8.4c-0.3,0.7-0.5,1.3-0.2,2.1c0.3,0.7,0.7,1.2,1.2,1.8c0.7,0.8,1.5,1.9,2.1,3.3c1.5,3.3,2.3,5.9,1.5,8.2
		c-0.2,0.8-0.6,1.3-0.9,1.8c-0.6,0.9-1.2,1.8-1.2,4.4c0,3,0,4.5,1.4,6.5c1.5,2.3,1.9,3.5,2.4,5.5c0.2,0.8,0.6,1.6,1,2.3l0.8,0.9
		c0.8,0.7,1.3,1.4,1.4,2.5c0.1,1.2,0,2.5,0.2,3.7c0.5,2.1-0.2,4.2-0.3,6.3l0.1,0.8l1.5,1.3c1.4,1,3.2,2.3,3.3,4.2
		c0.1,0.9,0,1.8,0,2.8c-0.1,1.7-0.1,3.4,0.3,4.7c0.2,0.6,0.5,1.2,0.9,1.7l1.2,1.2c1,0.6,1.5-1.1,1.5-1.8c0-1.6-0.1-3.2-0.3-4.9
		c-0.1-1.1-0.4-2.1-0.2-3.2c0.2-1.1,1.2-2,1.9-2.8c0.7-0.8,1.6-1.7,2.2-2.6c1.6-2.4,0.8-3.5,0-4.6l-0.5-0.7
		c-0.7-1.3-1.1-2.9-1.3-4.4c-0.1-1-0.1-2.1,0.1-3.1c0.4-2.3,2.1-4.6,1.4-7c-0.3-1-0.9-1.8-1.5-2.6c-0.5-0.9-1.1-1.7-1.7-2.6
		c-0.7-1.2-1.4-2.4-1.7-3.7l0-1.7c0.2-1.4,0.8-2.6,1.4-3.8c0.9-1.7,1.7-3.4,1.6-5.9c-0.1-1.8-0.7-3-1.3-4.2c-0.5-1.1-1-2-0.8-3.1
		c0.3-1.5,1.5-2.9,1.4-4.5c-0.1-0.7-0.5-1.3-0.8-2c-1.1-2.3-2.6-5.5-1.9-8c0.7-2.6,3.3-4,4.4-4c1.1,0,2.2,1.1,4.1,3
		c1.4,1.4,2.9,3,4.2,3.5l1.4,0.2c0.7,0,1.5-0.1,2-0.3c0.6-0.1,1.2-0.2,1.8-0.2l1.2,0.2c2.6,1.2,5.8,6.8,6.3,7.9c0.4,1,1.1,2.1,2,2.7
		l0.7,0.2l0.5-0.2c1.2-0.8,2-2.1,3.6-2.1h0.2c1.5,0,2.7,1.3,3.7,2.2l1.2,1l1.3,0.1c1,0,2.2,0,3.1,0.8c1.4,1.2,4,6.6,4.4,8.4
		c0.6,3,1.7,3,2.1,3l0.8-0.1c0.6-0.2,1.3-0.5,1.9-0.7c1-0.4,1.9-0.8,2.9-0.8c0.6,0,1.1,0.2,1.6,0.5c1.1,0.8,2.5,3.7,4.4,7.9l0.4,0.8
		c0.7,1.5,2.7,3.4,4.3,3.6l1,0.1c1.3,0.1,2.6,0.2,3.9,2.5c0.2,0.3,0.5,0.9,0.8,1.5c0.9,1.8,2.4,5,4,6.5c0.8,0.8,1.9,1.5,3.2,2.2
		c0.6,0.4,1.2,0.7,1.8,1.1l0.3,0.2c1.1,0.7,2.3,1.5,3.1,2.5c0.4,0.5,0.7,1.1,0.9,1.8c0.2,0.8-0.1,1.6-0.1,2.4
		c-0.2,1.9,1,4.1,1.9,5.7c0.4,0.8,4.8,6.6,5.1,7.2c0.6,1.4,1,2.3,2.2,2.9c2.1,1.1,4.4,1.2,6.1,4.1l0.8,1.4c0.4,0.7,0.8,1.5,1.4,2.2
		l0.9,0.8c0.9,0.1,0.1-2.6,0-2.9C146.2,216.6,146.1,215.8,146.2,215.1z M69.9,107.8L69.9,107.8c-0.9,0.2-1.9,0.3-3.1,0.6
		c-2.4,0.6-4.6,1.8-6.3,3.4c-1.4,1.3-2.7,3.6-4.7,3.9l-0.3,0c-1,0-1.8-0.7-2.6-1.5c-0.9-0.8-1.9-1.7-3-1.7c-1.5,0.1-2.3,0.8-3.1,1.5
		c-0.7,0.6-1.4,1.2-2.3,1.2l-0.9-0.2c-0.5-0.2-1-0.7-1.2-1.3c-0.5-1.5,0-3.8,0.8-5.4l0.4-0.9c0.4-0.8,1-1.7,0.5-2.6l-1.2-0.9l-1-0.7
		c-0.8-0.8-1.2-1.8-1.1-2.9l0.1-1.5c0.2-1.9,0.5-4.8-0.9-5.9l-0.9-0.6c-0.9-0.6-2-1.2-2.3-2.4l-0.2-0.6c-0.3-1-0.6-2-0.1-3
		c0.4-0.6,0.6-1.4,0.6-2.2c0.1-0.7,0.1-1.6-0.2-2.2c-0.4-0.7-1.1-1.1-1.4-2l-0.2-0.7l-0.4-0.5l-1.4-0.9c-0.8-0.9-0.8-2.3-0.9-3.5
		c-0.1-1-0.1-1.9-0.1-2.9c0-0.9-0.1-1.8,0-2.7c0.1-0.6,0.5-1.2,0.4-1.8c0-0.6-0.5-1-0.9-1.5l-1-1.3c-0.7-1-1.2-2.3-1.1-3.6l0-0.4
		c0.2-1.8,0.5-5,2.7-5.6l0.9-0.1c0.6,0,1.3,0.1,2.2,0.3c0.9,0.2,1.8,0.3,2.7,0.3c0.9,0,1.6-0.2,2.3-0.5c1.3-0.6,2.7-1.8,4-2.9
		c1.9-1.6,3.7-3.1,5.4-3.3l0.9,0c1.2,0,2.1,0.1,3.1,0.3c0.8,0.1,1.7,0.3,2.8,0.3l0.5,0c0.8,0,1.6-0.1,2.2-0.3l1.5-0.2
		c0.7,0,1.3,0.2,1.8,0.7c0.3,0.3,0.5,0.8,0.8,1.6c0.6,1.4,1.5,3.8,3.1,4.6l1.1,0.2c0.8,0,1.6-0.4,2.3-0.7c0.7-0.3,1.5-0.7,2.2-0.7
		l0.8,0.1c1.2,0.5,3.9,4.2,3.5,6.2l-0.4,1.1C76,62.6,75.8,63,76.6,64c0.8,1,1.8,2,2.8,3c2.2,2.2,3.5,3.6,3.7,4.8
		c0.3,1.7-1.4,2.2-2.2,3.4l-0.2,1.3l0.3,0.5c1.1,1.4,2.3,2.8,2.1,4.7c0,0.6,0,1.2-0.1,1.8c0,1.3,0.1,2.7-0.6,3.8
		c-0.6,1.1-1.8,1.3-2.5,2.3c-0.5,0.8-0.6,1.8-1.3,2.5l-1.1,0.6L77,93.4c-0.6,0.8-0.9,1.9-1,2.9c-0.6,4.9-1.2,7.5-2,8.7
		C72.7,106.9,71.4,107.4,69.9,107.8z"/>
	<path class="st2" d="M115.7,74.8L115.7,74.8l1.2,0.4c0.9,0.4,1.2,0.9,1.5,1.3c0.8,1.1,1.3,2,2.8,1.9c1.8,0,3.8-0.7,3.8-6
		c0-2.6,0.5-4.1,0.9-5.5l0.4-1.2c0.3-1,0.3-2.4-0.3-3.2c-0.8-1.2-1.5,0-2.6,0l-1-0.2c-1.4-0.6-1.1-2.3-1-3.7c0.1-0.7,0.2-1.4,0.1-2
		c-0.1-1.6-0.4-2-2-2.1l-0.2,0c-1.6,0-3.1,1.2-3.6,3c-0.2,0.8,0.1,1.5,0.6,2.6c0.4,0.8,0.9,1.7,0.8,2.7c-0.1,0.9-0.7,2.1-1.5,3.5
		c-0.8,1.5-1.8,3.4-1.9,4.7C113.6,73.8,115.7,74.8,115.7,74.8z"/>
	<path class="st2" d="M124.8,89.3c-0.9,0.2-1.4,1.2-2.2,1.6c-1.2,0.6-2.5,0.3-3.7-0.3l-0.5-0.1c-0.8,0.1-0.3,2.8-0.2,3.3
		c0.2,1,0.8,2,0.8,3c-0.1,1.2-0.5,2.7-0.9,4c-0.3,1-0.6,2.2-0.6,2.6c0,0.7,0.4,0.9,1.2,1.3c0.5,0.3,1.2,0.6,1.5,1.2
		c0.7,1.4,0.2,4.7-0.4,6.2l-0.5,1.1c-0.7,1.6-2,4.2-2,5.9c0,1.3,1.1,2.4,2,3.5c0.6,0.6,1,1.1,1.3,1.7c0.8,1.6,0.2,6.8-0.2,9.7
		c-0.3,2.1,0,3.2,0.6,4.6c0.6,1.4,0.4,2.6,0.2,3.8l-0.1,1.1c-0.1,0.8,0.5,1.7,1,2.7c0.3,0.6,0.6,1.1,0.9,1.7
		c0.4,1.1,0.3,3.6,0.1,7.6c-0.1,1.9-0.2,3.8-0.1,4.8c0.2,2.4,1.6,4.1,2.5,4.2l0.1,0c0.6,0,0.8-0.6,1.1-2.1l0.1-0.4
		c0.3-1.3,0.2-2.1,0.1-4c0-0.8-0.1-1.8-0.2-3.1c-0.2-4,0.5-5.6,1.3-7.2l0.4-0.9c1.5-3.6,2.3-6.6,2.2-7.9c-0.1-1.4-0.7-2.6-1.3-3.7
		c-0.5-1-1-2-1.2-3.1c-0.4-2.3,1.3-4.7,2.7-6.7c0.7-1,1.3-1.9,1.3-2.3c0.2-1.8-0.5-3-2.1-3.8c-2.8-1.4-3.2-4.3-3.4-7.5l0,0
		c-0.1-1.8,0.5-3.9,1-6.1c0.3-1.1,0.6-2.2,0.8-3.4c0.5-2.7-0.1-4.2-0.9-6l-0.2-0.6c-0.6-1.6-0.4-2.9-0.2-3.9l0.2-1.5
		c0-0.4,0-1.3-1.6-1.3L124.8,89.3z"/>
	<path class="st2" d="M186.8,139.1L186.8,139.1c-0.6,0-1.5,0.6-2.5,1.6c-0.8,0.8-2,1.2-3.4,1.2c-1.3,0-2.6-0.3-3.5-0.9l-1.3-0.8
		c-1.7-1.1-3.5-3.1-5.5-1.7c-0.7,0.4-1.4,0.9-2.2,0.9c-0.6,0-1.2-0.2-1.7-0.4c-0.5-0.2-1.1-0.5-1.8-0.5l-0.3,0c-0.3,0-1.2,0.6-2,1.3
		c-1.3,0.9-3,2.2-4.5,2.2l-0.3,0c-1-0.1-2.4-0.7-3.2-2.1c-0.5-0.9-0.9-2.4,0-4.5c0.5-1.3,1.4-2.7,2.2-4.1c1.2-2.1,2.6-4.4,2.4-5.6
		c-0.2-1.2-1-1.7-1.9-2.2c-0.6-0.4-1.2-0.8-1.5-1.5c-0.8-1.8-0.3-4.8,3.3-8.2c1.5-1.4,2.9-2.5,4.2-3.4c1.5-1.2,2.9-2.2,3.8-3.2
		c0.8-1,1.6-1.5,2.1-1.9l0.7-0.6l0.1-0.1l-0.4-0.1c-0.5-0.2-1.3-0.4-1.5-1.1l0.1-1.3c0.7-1.5,4.5-3.2,6.9-3.3c2.6,0,7-0.3,8.5-0.9
		c1.1-0.4,4.2-2.7,3.3-4.2L186,93c-2.1-0.9-3.8-0.4-5.9,0.1c-1.2,0.3-2.2,0.6-3.5,0.6c-1.1,0-2-0.5-2.8-1.2
		c-0.6-0.6-1.5-1.5-2.4-1.4c-2.2,0-4,0.5-5.5,1.4l-1.4,0.8c-1.7,1-2.8,1.6-3.1,3l-0.1,0.9c-0.2,1.4-0.4,3.2-2.5,3.8l-0.2,0.1
		c-4.8,1.4-6,2.3-6.3,2.6l-0.3,0.3c-0.8,0.7-2.1,2-2,4c0.1,2-0.3,3.6-1.4,6.2c-0.3,0.7-0.6,1.3-0.9,1.9c-0.7,1.3-1.1,2.2-1.1,4.3
		c0.1,2.8-1,4.5-2,6.1l-0.7,1.1l-1,1.5c-0.6,0.8-1.2,1.6-1.6,2.5c-0.6,1.2-0.8,2.8-0.6,3.3l0.3,0.3c0.4,0,1.2-0.7,2-1.5
		c0.7-0.7,1.1-1.1,1.7-1.1l0.9,0.5c0.5,0.9-0.1,2-0.9,3.6c-0.4,0.7-0.8,1.5-1,2.1c-1.4,4-1.4,5.5-1.2,6c0.1,0.4,0.3,0.7,1.4,0.7
		l1.5-0.1l1.6-0.1c2.1,0,3.6,1,4.3,2.9c0.3,0.8,0.1,1.6-0.1,2.4c-0.3,1-0.4,1.6,0.1,2.3c0.5,0.8,0.9,1.2,1.4,1.5
		c0.5,0.4,1.2,0.9,1.7,2c0.3,0.5,0.3,1.3,0.5,2.7c0.2,2.5,0.5,4.8,1.4,4.8l0.1,0c1.3,0,2.4-2.5,3.3-4.7c0.3-0.7,0.6-1.4,0.9-2
		c2.1-4.3,3.9-6.4,5.6-6.8l0.7-0.1c0.7,0,1.2,0.2,1.6,0.4l0.7,0.2l0.7-0.2c0.8-0.3,1.7-1,2.6-1.7c1.2-0.9,2.4-1.7,3.6-2.1
		c0.4-0.1,1-0.2,1.8-0.2c0.7,0,1.5,0,2.2,0.1c0.7,0,1.4,0.1,2,0.1l0.6,0c2-0.1,2.7-1,3.7-2.6l0.6-0.9c1.3-1.7,1.1-3.7,0.4-4.3
		L186.8,139.1z"/>
	<path class="st2" d="M256.9,74.2L256.9,74.2c-0.7,0-1.7,0.2-2.6,0.6c-1.6,0.6-7.8,4.4-9.4,5.9c-0.5,0.5-1.2,1.1-1.9,1.8
		c-1.5,1.5-3.1,3-4.3,3.7c-0.8,0.5-1.2,0.9-1.9,1.7c-0.6,0.6-1.3,1.4-2.4,2.5c-1.4,1.3-2.4,1.8-3.5,1.8l-0.7,0l-0.5,0l-0.5,0.1
		c-1.2,0.3-2.3,0.7-4.7,3.1c-2.8,2.8-5.2,3.9-7.4,4.5c-0.8,0.2-1.5,0.9-2.2,1.5l-0.5,0.4c-0.8,0.7-1.6,1.2-1.7,1.2l-0.5,0.1
		l-0.5-0.1l-0.4-0.9c0.2-1.3,0-2.6-0.2-3.5l-0.1-0.7c-0.1-0.8-0.2-1.4-0.2-2.3c0-0.9,0.4-1.7,0.8-2.6c0.6-1.1,1.2-2.4,1.3-4.5
		c0.2-3.7-0.1-4.1-0.8-4.9c-0.6-0.8-0.6-1.9-0.6-3.4c0-0.8,0-1.6-0.1-2.5c-0.1-1.4-0.4-2-0.7-2.6l-0.5-1.4c-0.1-0.7,0.2-1.6,0.7-3.2
		c0.7-2,2.3-5.2,2.3-8.1c-0.1-4.4-0.6-5.2-1.8-5.5l-0.2,0c-0.7,0-1.3,0.7-1.9,1.4l-0.1,0.1c-0.6,0.7-1,1.6-2.3,1.9
		c-1.1,0.3-1.7-0.8-2.6-1.3l-1.2-0.2l-0.4,0.6c-0.9,2-0.1,3.8,0.2,5.9c0.1,1.3,0.2,2.5,0.3,3.8c0.2,3.2,0.1,6.4-0.4,9.5
		c-0.1,0.4-0.2,1-0.3,1.6c-0.3,1.9-0.7,4.2-1.2,6.3c-0.7,2.8-1.6,5.5-2.3,7.8c-0.3,0.9-0.5,1.6-0.7,2.3c-0.6,1.9-0.7,3.7-0.8,5.3
		c-0.1,1.6-0.2,2.9-0.8,3.9c-1,1.7-2.7,5.6-3.2,8.7c-0.1,0.7,0.1,1.5,0.6,2l0.8,0.5l0.6-0.3l0.7-0.8l0.1-0.1
		c0.5-0.6,1.3-1.5,2.2-2.6l0.7-0.7c1.1-1.3,2-2.4,3.1-2.4l0.8,0.2c1.9,1.2,0.8,5.6,0,7.5c-0.4,1-0.4,1.8-0.3,2.6
		c0.1,0.8,0.1,1.7-0.2,2.6c-0.1,0.4-0.3,1.4-0.4,2.4c-0.4,2.6-0.6,3.9-1.2,4.5c-0.5,0.5-1.3,1.9-1.3,3.2l0.5,1
		c0.5,0.5,1.1,1.3,1.2,2.5c0.1,1-0.7,7.8-1.4,10.6c-0.3,1.2-0.5,2.8-0.7,4.3c-0.3,2-0.5,3.8-0.9,4.7c-0.7,1.3-2.1,5.8-2.5,8.7
		c-0.3,2.1,0.1,3.2,0.5,3.4c0.6,0.4,0.9,1.1,1,1.8l0.5,1.4c0.6,0,1-2,1.3-2.3c0.5-0.7,0.9-1.4,1.2-2.2c0.3-0.8,0.4-1.4,0.5-2.1
		c0.2-1,0.4-2,1.1-3c0.9-1.3,2.1-4.6,2.7-8.2c0.3-1.6,0.6-3.7,1-5.8c0.6-3.5,1.2-7.2,1.5-8.6c0.4-1.6,1.1-2.4,2.2-2.4
		c0.7,0,1.4,0.7,2.1,0.5c0.7-0.2,1.3-1.3,1.7-1.9c0.7-0.9,1.9-1.2,2.9-0.9c1.3,0.4,1.9,1.4,2.3,2.7c0.3,0.9,0.6,2.4,1.2,2.6
		c2.1,0.6,2.6,2.2,5.1,7.1c1.5,2.9,1.8,4.9,2.1,6.8c0.1,0.9,0.3,1.7,0.5,2.5c0.4,1.6,1.6,2.6,2.7,3.5l1.6,1.5
		c1.8,2.2,2.7,5.1,3.4,7.4c0.3,1,0.6,1.8,0.8,2.5c0.7,1.5,2,3.5,3,5c0.5,0.7,0.9,1.3,1.1,1.6c0.7,1.2,1.2,3.8,1.7,6.4l0,0.1
		c0.1,0.5,0.4,1.1,0.7,1.7c0.5,0.9,0.6,2.8,0.8,4.1l0,0.9c0,1.1,0.1,2.4,0.4,2.8l0.7,0.3c0.5,0,1-0.3,1.1-1c0.1-0.8,0.3-3.3,0.1-4.7
		c-0.3-1.5-0.4-2.3-0.3-2.9c0.1-1,0.8-1.1,1-1.1c0.7,0,1,0.5,1.4,1.8c0.4,1,0.9,2,1.6,2.8l0.6,0.5c1.6,0.6,0.3-5.1,0.2-5.7
		c-0.2-0.8-0.8-2.4-1.4-4.2c-1.1-2.9-2.5-6.8-3.4-10.6c-1-3.9-1.3-6.6-1.6-8.9c-0.2-1.3-0.3-2.6-0.6-3.9c-0.4-1.9-1.2-3.1-2.1-4.5
		c-0.6-0.9-1.3-2-2-3.3c-0.8-1.7-0.9-3-1-4.3c-0.1-1.3-0.2-2.3-0.9-3.5c-0.9-1.3-2.3-1.6-4-2c-1.2-0.2-2.4-0.5-3.4-1.2
		c-1.5-1-2.4-2.3-3.4-3.9c-0.6-0.9-1.1-1.7-1.9-2.7c-2.3-2.8-3.5-4.5-4.3-6.3l-0.3-0.8l-0.5-1.2c-1.3-1.3-2.2-2.7-2.7-4
		c-0.9-2.6,1-5.3,1.8-6.3c0.6-0.8,1.8-1.1,3.1-1.4c0.9-0.2,1.8-0.5,2.6-0.8l0.3-0.1c1.9-1,5.9-3,7.3-4.5c0.6-0.6,1.7-2.1,1.9-3.1
		c0.7-2.6,1.6-4.7,2.6-6.7c1.1-2,3.1-3.1,5.2-4.3c0.9-0.5,1.8-1,2.7-1.6c2.8-1.9,3.3-2.6,4.7-5.4c1-2,1.9-2.7,2.7-3.3l1.3-1.2
		c0.5-0.7,1.5-1.5,2.6-2.4c0.8-0.7,2.6-1.2,2.8-2.4C258,74.3,257.3,74.2,256.9,74.2z"/>
	<path class="st2" d="M339,105.5L339,105.5l-0.9-1.1c-0.9-0.1-1.4,1.7-1.7,2.4c-0.7,1.2-1.5,2.4-2,3.7c-0.8,2.4-2.2,6.6-3.3,8.4
		c-0.6,1-0.9,2.6-1.2,4c-0.2,1-0.1,2.1-0.1,3.1l-0.2,2.8c-0.9,0.8-2.4-1.9-2.7-2.4c-0.7-1.2-1.2-2.5-1.6-3.8c-0.2-0.7-0.4-1.5-0.7-2
		c-0.6-1-1.1-1-1.4-0.9l-0.7,0.1l-0.8,0.1c-1.8,0-2.4-1.6-3-3.1c-0.3-0.8-0.5-1.7-0.7-2.9c-0.3-1.5-0.6-3.2-1.3-4.6
		c-0.7-1.4-1.7-1.9-2.4-1.9l-0.5,0.1c-0.1,0.1-0.4,0.6-0.2,2.7l0,0.8c0,1-0.2,4.2-0.6,5.6c-0.1,0.5,0,2.2,0.2,4.1
		c0.1,1.6,0.3,3.1,0.2,4.1c-0.1,2.9-1.3,4.8-2.2,6.1l-0.4,0.6c-0.8,1.2-0.5,3.4-0.3,4.8c0.1,1,0.6,1.7,1.2,2.5l1,1.5
		c0.4,0.8,0.4,2,0.3,3.5c0,1,0,2,0.1,2.6c0.1,0.7,0.7,1.5,1.4,1.8c1.5,0.8,2.9-2.2,2.9-3.3c0-0.6-0.3-1.2-0.4-1.8l0.3-1.6l0.3-1.2
		c0.2-1.9-0.1-4-0.6-4.9c-1-1.8-0.4-7.2-0.3-7.8l1-0.7c0.8,0,1.2,0.7,2,2.5l0.1,0.1l0.5,0.9c0.2,0.3,0.8,0.8,1.5,1.4
		c0.7,0.6,1.4,1.1,1.7,1.6l0.5,0.9l0.9,1.5l0.7,0.8c0.4,0.5,0.8,1,1.1,1.7c0.5,1,1.1,2.2,1.8,3.3c0.8,1.5,1.7,3,2.2,4.4
		c0.8,2.2,1.1,3.8,2.1,3.9c1,0.1,0.7-1.2,1.2-3.9l0.3-1.4c0.3-1.1,0.2-2.7,0.2-4.1c0-0.9-0.4-2-0.4-2.7c0.1-0.8,0.6-1.4,0.8-2.2
		c0.3-1.2,0.2-2.7,0.1-4c-0.1-0.9,0.6-1.5,1-2.5c0.2-0.6,0.5-1.3,0.6-2c0.2-1,0.2-2.1,0.3-3.2c0-0.7,0-1.3,0.1-1.8
		c0.1-1,0.2-2.7,0.6-4.5c0.7-3.3,1.8-7.2,1.8-9.7C339.5,106.9,339.3,106.1,339,105.5z"/>
	<path class="st2" d="M307.5,149.8c-0.2-1.3-0.4-2.7-0.5-4.2l-0.1-1.3c-0.1-1.3-0.2-2.6-0.1-4.3c0.5-5.9-0.3-8.3-1.7-10.1
		c-1.1-1.4-1.3-3.7-1.6-5.7c-0.1-1.1-0.3-2.2-0.5-2.8c-1-2.2-1.5-4.3-1.8-6.3c-0.1-0.5-0.1-1.2-0.2-1.9c-0.2-2.2-0.4-5.1-1.1-6.9
		c-0.6-1.5-0.6-3.2-0.6-5.1c0-1.5,0-2.9-0.3-4.5l-0.6-1.6c-1-1-2.5,1.2-2.9,1.9c-1,1.5-1.3,3.3-1.7,5c-0.4,1.8-0.8,3.4-1.3,4.4
		c-0.8,1.6-2.1,1.8-3.1,1.8l-0.8,0l-0.7,0.1c-0.6,0.2-1.5,1.5-2.2,3.7c-0.2,0.7-0.6,1.7-1,2.7c-0.5,1.2-1.1,2.4-1.3,3.6
		c-0.3,1.2,0.3,2.6,0.6,3.8c0.6,2.3,1.2,4.4,0.6,5.7c-0.1,0.3-0.4,1.2-0.7,2.2c-0.5,1.8-1.2,4.4-2.3,7.1c-0.8,2-1.1,2.5-1.8,3.7
		c-0.3,0.5-0.7,1.2-1.3,2.3c-1.3,2.5,0.4,5.7,1.1,6.9l0.2,0.3c0.4,0.8,0.3,1.9,0.3,3.2c-0.1,1.2-0.2,2.7,0.3,3.2l0.8,0.3l0.8-0.9
		c0.4-1.5,1.2-2.7,1.9-3.8l1-1.6c0.3-0.6,0.3-0.7,0-1.4c-0.1-0.4-0.4-0.8-0.5-1.4c-0.6-2.2,1.1-4.2,2.2-5.5l0.2-0.2
		c0.7-0.9,0.8-1.4,0.9-2.3c0.1-0.8,0.1-1.8,0.7-3.3c0-0.1,2.2-5.4,4.5-5.4c0.6,0,1,0.4,1.3,0.8c0.5,0.6,1,0.9,1.6,1.4l0.8,0.6
		c1.4,1.1,2.7,4.4,3.1,6.4c0.2,0.9,0.6,2.2,1,3.6l0.5,1.6l0.2,0.9c0.3,0.9,0.5,2,1.1,2.7c0.6,0.8,1,1.7,1.3,2.6
		c0.4,1.1,0.8,2.3,1.5,3.2l0.8,0.5c0.7,0,1.5-0.9,1.6-2.3C307.9,152.5,307.7,151.3,307.5,149.8L307.5,149.8z M296.3,127.2
		L296.3,127.2l-0.9-0.1l-1.2-0.6l-0.9-0.9l-2.1,0.4c-0.7,0.2-1.6,0.4-2.2-0.1c-1-0.7-0.7-2.5-0.5-3.5c0.3-1.5,0.9-3,1.6-4.4
		c0.9-1.6,1.4-3.4,1.8-4.8c0.5-1.9,0.9-3.1,2.2-3.1c2.6,0,3.7,2.9,3.4,5.1l-0.1,0.6c-0.2,1.2-0.5,2.9,0.3,4.9
		C298.5,122.4,298.9,127.1,296.3,127.2z"/>
	<path class="st2" d="M366.7,89.1l-1.5,0c-1.5,0.6-2.2,2.4-2.8,3.8c-0.6,1.4-1.5,2.8-1.6,4.3c-0.1,1.3,0,2.9-0.4,4.1
		c-0.6,1.7-1.3,3.2-1.4,5.1c-0.1,0.9-0.1,1.7-0.4,2.4l-0.2,0.6c-0.5,1.2-1,2.6-1.9,4.3c-0.4,0.7-0.8,2.7-1.1,4.3
		c-0.5,2.6-0.8,4.3-1.5,5.1c-1.1,1.3-2.6,1.7-3.9,2.7c-0.8,0.6-1.3,1.6-2.3,2c-0.7,0.3-2.3,1.5-3,2.7c-1,1.7-2,2.6-3.2,3.4
		c-0.5,0.3-0.9,1.4-1,2.5c-0.1,1.2-0.6,2.3-1.1,3.4c-0.6,1.3-1,2.3-0.7,3.8c0.3,1.6,0,3.2,0.5,4.7c0.3,0.9,1.1,1.4,1.8,1.9
		c0.9,0.7,1.5,0.9,2.5,1.2c0.6,0.2,1.4,0.4,2.4,0.8l0.8,0.4c0.7,0.4,1.7,1,2.9,1.1l0.6,0l1.1,0c0.7,0,1.1,0,1.4-0.1
		c0.8-0.3,1.8-1.3,2.8-2.9c0.4-0.7,0.8-1.6,1.1-2.3c0.6-1.3,0.8-1.9,1.6-1.9l0.2,0c1,0.2,1.2,1.4,1.7,4.1l0.2,0.9
		c0.2,1,0.4,2.1,0.6,3.1c0.2,1.1,0.6,1.9,1.3,2.6c1.1,1.1,2.5,2.3,3.9,1.1c1.1-0.9,1.6-2.1,1.4-3.6c-0.2-1.7-0.6-3.3-1.1-4.9l0,0
		c-0.7-2.2-1.6-4.3-2.2-5.7l-0.3-0.7c-1.1-2.6-0.9-6.6-0.8-9.3c0-0.6,0.1-1.2,0.1-1.6c0-0.7-0.1-1.5-0.2-2.3c-0.2-1.7-0.4-3.5,0-5.8
		c0.2-1.3,0.7-3.2,1.4-6c0.4-1.6,0.9-3.2,1.3-4.6c0.2-0.9,0.5-1.6,0.6-2.1c0.6-2.3,0.2-3.4-0.8-4.7c-1.4-1.9-1-4.4-0.6-6.5
		c0.3-1.9,0.8-3.7,1.2-4.8l0.6-1.6c0.4-1.2,0.8-2.3,0.9-3.3C367.7,90.2,367.5,89.4,366.7,89.1z M357.4,140.6L357.4,140.6
		c-0.4,0.8-1,1.5-1.6,2.1l-0.4,0.4l-0.8,1c-0.7,1-1.6,2.2-2.8,2.8l-1.6,0.4c-1.7,0-3.2-1.2-4-2.2c-1-1.2-1.7-3.9-0.4-6.1
		c0.5-0.8,0.5-1.2,0.5-1.7c0-0.7,0.3-1.7,1.5-2.8c0.5-0.5,1.2-0.7,1.8-0.9c0.9-0.3,1.4-0.9,2-1.5l0.2-0.2c0.7-0.7,1.7-1.6,3-1.6
		l0.6,0.1c1.5,0.3,2.5,1.7,2.8,4C358.5,136.8,358.2,138.9,357.4,140.6z"/>
	<path class="st2" d="M609.3,120.9L609.3,120.9c0.7,0.4,1.5,0.4,2.6,0.4l1.1,0c1,0.1,1.6,0.4,2.3,0.8c0.5,0.3,1,0.6,2,1.1l1.5,0.8
		c0.7,0.4,1.3,0.9,2.2,0.7c0.6-0.1,1-0.6,1.6-0.6c1.2,0,1.8,0.9,1.8,2.7c0,1.2-0.7,2.5-1.3,3.8c-0.4,0.7-0.7,1.4-0.9,2
		c-0.3,0.9-0.2,1.7-0.2,2.6l0,1.6l-0.6,1.4c-0.4,0.7-0.9,1.4-1,2.6c-0.1,1.2,1.1,3.9,1.6,5l0.3,0.8c0.5,1.2,0,2.1-0.4,2.9
		c-0.3,0.6-0.7,1.3-0.9,2.5c-0.5,2.7,0.1,4,0.5,5l0.4,0.9c0.3,1,0.3,3.4,0.3,6.4v1.2c0,1.8-0.2,2.6-0.5,3.7l-0.3,1.4
		c-0.2,1-0.4,1.6-0.5,2.2c-0.3,1.2-0.4,1.5-0.6,3.3c-0.1,1-0.3,4.4-0.1,6c0.2,2.4,0.7,3.7,1.1,4.4l0.6,0.7c0.6,0,0.6-1.4,0.6-1.8
		c0.3-1.7,0.9-3.5,1.4-5c0.3-0.8,0.6-1.6,0.7-2.2l0.4-1.3c0.4-1.4,0.8-2.8,0.9-4.7c0-1.9,0.2-3.8,0.5-5.8c0.2-2,0.5-4.2,0.6-7
		c0.2-4.3,1-5.7,1.9-6.8l0.3-0.4c0.5-1.1,0.8-2.5,0.9-4.3c0-1.5-0.2-2.8-0.4-3.9c-0.1-0.8-0.3-1.5-0.3-2.1c0-0.8,0.4-1.5,0.7-2.3
		c0.4-0.9,0.8-1.9,1-3.3c0.2-1.7,0-3.6-0.1-5.3c-0.2-1.8-0.4-3.3,0-4.3c0.4-1.3,1.5-2,2.8-2c1.1,0,2.4,0.5,3.3,1.3l0.4,0.4
		c1.2,1.1,1.9,1.7,3.1,1.7c0.6,0,1.2,0.1,1.8,0.1c0.6,0.1,1.1,0.1,1.6,0.1c0.7,0,1.3-0.1,1.8-0.3l1.3-0.3c1.4,0,2.6,0.9,3.7,1.6
		c0.6,0.4,1.2,0.9,1.7,1.1c1.4,0.6,2.9,0.9,4,0.9l1.5-0.5l-0.9-1.1l-0.1-1.4c0.3-0.5,0.9-0.7,1.7-1c1.8-0.7,2.8-1.2,2.6-2
		c-0.2-0.9-1.5-1.5-2.2-1.9c-0.7-0.4-1.5-0.6-2.3-0.8c-0.8-0.1-1.5-0.1-2.3-0.2c-1.1-0.2-1.9-0.7-2.6-1.7c-0.4-0.7-1.9-1.5-3.8-1.8
		l-1-0.1c-1.7,0-3,0.8-3.7,1.3l-1.1,0.5l-0.4-0.1c-0.8-0.3-0.8-1.2-0.6-1.9l0.1-1.6c-0.1-0.4-0.3-0.7-2-0.7l-1.2,0
		c-0.7,0-1.4,0.2-2.1,0.3c-0.8,0.1-1.6,0.3-2.3,0.3c-1.4,0-2.4-0.5-2.9-1.6c-0.5-1.1,0.1-2.9,1.3-6c0.6-1.4,1.1-2.9,1.4-4.1
		c0.2-0.9,0.5-1.9,0.7-2.8c0.6-2.3,1.3-4.5,1.3-6.4c0-2.1,0.8-3.7,1.4-5.1c0.6-1.2,1.1-2.4,1.2-3.9c0.2-2.7-0.4-3.3-1.5-4.2
		l-0.6-0.5c-2-1.9-1.2-4.1-0.5-5.6c0.4-0.8,1-1.7,1.5-2.5c0.9-1.4,1.9-3,2.9-5.3c1.1-2.3,0.9-3.3,0.6-3.7l-1.6-0.6
		c-1.9,0-3.6,1.7-4.4,4.3c-0.5,1.5-1.1,2.4-1.6,3.1l-0.8,1.4c-0.5,1.6-1.1,2.4-1.6,3.2c-0.4,0.6-0.8,1.2-1.3,2.2
		c-0.8,1.8-1.1,5.1-1.2,6.8l-0.1,1.2c-0.1,1-0.7,2.2-1.4,3.9l-0.6,1.4c-0.8,1.9-0.7,5.3-0.7,6.8l0,0.5c0,1.1-0.5,2.1-1,3.2
		c-0.3,0.5-0.5,1.1-0.8,1.7c-0.7,1.7-0.5,3.8-0.3,5.4l0,0.2c0.2,2.3-0.6,3.9-1.3,4.8c-0.7,0.9-1.9,0.9-3,0.9c-0.7,0-1.6,0-2.4,0.2
		c-0.7,0.2-1.5,0.7-2.5,1.6c-0.7,0.6-1.5,0.7-2.4,0.7l-0.9,0c-0.9,0-1.5,0.1-2,0.6l-0.4,0.9L609.3,120.9z"/>
	<path class="st2" d="M604.8,176.3l0.6,0.1c0.8,0,1.5-0.5,1.7-1.3c0.1-0.4,0-1.2-0.1-1.9l-0.1-0.9c-0.1-1-0.9-2.6-1.6-4.1
		c-1-2-2-4-2.2-5.9c-0.1-1,0-2.7,0.1-4.7c0.1-2.5,0.3-5.3,0-7.1c-0.5-3-1.4-4.6-3.9-8.5c-1.8-2.7-1.7-3.6-1.4-5.7l0.1-0.7
		c0.4-2.9-1-4.6-2.5-6.5c-1.4-1.7-2.8-3.7-4.9-4.5c-1.6-0.6-2.6-2.5-2.4-4.2c0.3-1.8,2-2.5,3.4-3.1l0,0l1.3-0.6l0.5-0.3
		c1.1-0.6,1.7-1,3.4-2.4c1.3-1.1,2.7-1.5,4-1.8c0.9-0.2,1.8-0.4,2.5-0.9c2-1.2,4.4-4.1,4.8-5.8c0.4-1.7-0.1-5.5-1.1-6.8l-0.9-1.1
		c-1-1.1-1.9-2.2-2.4-3.8c-0.3-0.9-0.8-1.4-1.2-1.9c-0.4-0.4-0.8-0.9-1-1.5c-0.2-1,0.3-1.9,0.8-2.7c0.4-0.7,0.8-1.3,0.7-1.9
		c-0.1-1-1.8-2.6-3-2.9l-0.7-0.1l-1.4,0.2c-0.7,0.1-1.5,0.3-2.4,0.3l-1.2-0.1c-1.8-0.2-3-0.9-4-1.5c-0.6-0.3-1.1-0.6-1.5-0.7l-0.2,0
		c-1,0-2.3,1-3.3,2.4c-0.5,0.8-1.2,1.5-2,2.3c-0.9,1-1.9,2-2.5,3c-0.4,0.7-0.9,1.7-1.3,2.7c-1.4,2.9-1.8,3.7-2.6,3.9l-0.2,0
		l-0.9-0.4c-0.5-0.5-0.5-1.3-0.5-2.3c0-0.9,0-2-0.3-2.6c-0.7-1-0.8-2.8-0.9-5.8c0-0.8,0-1.7-0.1-2.5c-0.1-1.3-0.2-3.4-1.3-4.3
		l-1.7-0.1c-0.9,0.4-1.1,1.4-1,2.3l0.1,0.9c0.1,1.6,0.3,3.3-0.3,5.6c-0.5,1.9-0.4,3.7-0.3,4.8l0,0.6c0,0.9-0.2,2.4-0.7,4.5
		c-0.2,1.1,0.6,2.8,0.6,4.2c0,1.2,0.1,2.4-0.1,3.7c-0.1,1.2-0.4,2.2-0.8,3.3c-0.5,1.6-0.9,3.2-1,5.3c-0.1,3.7,1.4,4.4,2.7,5l0.4,0.2
		c1.8,0.9,1.8,2.8,1.8,4.8c0,1.4-0.6,2.6-1.2,3.8c-0.4,0.8-0.9,1.7-1.2,2.7c-0.5,1.4,0.2,2.8,0.9,4.3c0.5,0.9,0.9,1.8,1.1,2.8
		c0.2,1.6-0.1,3-0.5,4.6c-0.2,0.9-0.4,1.7-0.6,2.7c-0.3,1.6,0,2.8,0.3,4.1c0.2,0.8,0.4,1.7,0.4,2.6c0,0.9-0.1,1.9-0.3,2.9
		c-0.2,1.4-0.4,2.9-0.2,4.3c0.1,0.8,1,1.1,1.6,1.1l1.2-0.4c1.3-1.3,1.2-4.8,1.2-7.3l0-0.6c0-1.8,0.8-3.5,1.5-5.1
		c0.6-1.3,1.2-2.6,1.4-3.9c0.3-1.5,0.2-2.7,0.2-5.2c0-1.2-0.1-2.6-0.1-4.3c0-0.5-0.1-1.1-0.2-1.7c-0.1-0.7-0.2-1.4-0.2-1.9
		c0.2-2.3,1.2-6.7,4.4-5.4c1.7,0.7,1.4,4.2,1.5,5.7c0,1.1,0,2.2,0,3.2c0,1,0,2,0.1,2.6c0.2,1.3,0.6,1.6,1.5,2.3l1.5,1.2
		c1.6,1.6,5.1,6.7,6.2,8.7c0.4,0.8,1.4,1.8,2.4,2.8l1.4,1.5c2,2.4,1.8,6,1.6,8.7c-0.1,1.6,0.3,2.5,0.8,3.6l0.6,1.4
		c0.7,1.9,1,2.8,1.5,6.3C601.7,173.9,603.8,176,604.8,176.3z M586.5,115.8L586.5,115.8l-0.4,0h0c-2,0-2.8-1.8-3.4-3.1l-0.3-0.6
		c-0.9-1.6-2-2.6-2.9-3.4c-0.8-0.8-1.6-1.4-1.8-2.3c-0.3-1.3-0.1-2.9,0.6-4c0.5-0.8,1.2-1.3,2-1.5c0.6-0.1,1.5-0.3,2.3-2.4
		c1-2.7,2.1-4.2,4-5.4c1.2-0.8,2.3-0.9,3.1-0.9l1,0l1,0l1.3,0c1.3,0,4,0,4.4,2c0.3,1.3-0.9,2.2-2.3,3.2c-0.8,0.6-2.6,1.9-2.6,2.6
		c-0.1,1.1,0.1,2.2,0.4,3.4c0.2,1,0.4,2.1,0.4,3.2C593.5,111.1,588.2,115.5,586.5,115.8z"/>
	<path class="st2" d="M555.9,126.9L555.9,126.9c-0.4-0.7-0.9-1.4-1.7-2.3c-0.8-0.8-1.4-1.9-1.7-3.2c-0.4-1.7-0.1-3.3,1-5.7l0.6-1.3
		c0.3-0.6,0.6-1.3,1-2.1c0.7-1.4,0.6-3.5,0.6-4.9l0-1.1c0.1-2.9-0.7-4.4-1.4-5.6l-0.4-0.7c-0.3-0.6-0.4-1.4-0.5-2.2
		c-0.1-1.2-0.3-2.4-1.1-3.3l-1.2-1.3c-1.3-1.4-2.6-2.8-3.8-3.2c-1-0.4-1.6-0.7-2.2-1c-1.1-0.6-1.9-0.9-4.1-1.3l-1.7-0.1
		c-3.1,0-5.4,1.6-6.4,2.6c-1.5,1.4-5,5.3-5.9,7.3c-0.8,1.7-1.8,2.2-2.8,2.7l-1,0.6l-0.2,0.1c-1.5,1-2.8,1.9-4.1,4.1
		c-0.8,1.3-1.1,3.3-1.4,5.1c-0.2,1.4-0.4,2.6-0.9,3.5c-0.3,0.6-0.8,1.2-1.3,1.8c-1,1.2-2.1,2.6-2.4,4.9c-0.2,2.2,0.6,3.3,1.5,4.5
		l0.7,1.1c1.4,2.4,2.1,6.7,1.7,9.5c-0.3,2-0.4,6.8-0.1,9.5c0.2,1.4,1.1,2.4,2.1,2.4l0.4,0l1.4-0.2c2,0,3.4,1,4.5,1.8l0.7,0.5
		c0.7,0.4,1.4,0.6,2.2,0.9c0.8,0.2,1.5,0.4,2.1,0.9l0.8,1.4c0.4,1,0.7,1.8,1.9,2.1l0.4,0.1c0.9,0,2.2-0.6,3.2-1
		c0.6-0.3,1.1-0.5,1.5-0.5l0.8-0.1c0.7,0,1.2,0.1,1.6,0.2l1,0.1l0.8-0.1c3.2-0.9,8-5.4,9.2-7.1l0.6-0.9c0.9-1.3,1.5-2.2,3.1-3.8
		c1.2-1.2,3.6-4.8,3.9-7.2c0.2-2.3,0-3.6-2-6.3L555.9,126.9z M541.5,140L541.5,140l-1.2,0.3l-1.2-0.1l-1.2-0.1l-0.8,0.1
		c-0.3,0.1-1.4,0.7-2.1,0.7c-1.4,0-1.9-1.1-2.1-2.5c-0.2-1.2-0.5-1.6-0.9-2.2c-0.3-0.3-0.6-0.8-0.9-1.4c-0.8-1.5-1.7-2.4-2.5-2.4
		l-0.7,0.1c-1.4,0-3.2-0.7-3.8-4.1c-0.2-1.1-1.1-6.7,0-9.5c0.7-1.8,1.9-2.9,2.9-3.9c0.8-0.7,1.4-1.4,1.8-2.2
		c0.2-0.4,0.1-1.8,0.1-3.2c0-1-0.1-1.9,0-2.6c0.2-2,2.4-4.7,3.8-5.6c0.6-0.4,1.8-1,2.8-1l1.4,0.5c0.7,0.5,1,1.4,1,2.2
		c-0.3,2.9-1.3,2.8-1.6,4.3c-0.3,1.1-0.3,2.2-0.2,3.3c0.1,1.1,0.5,1.7,1.4,2.4l0.8,0.7c0.5,0.4,1,0.9,1.8,1.3
		c3.3,1.8,2.9,3.1,2.3,6.2c-0.2,1-0.6,1.9-1,2.8c-0.7,1.5-1.3,2.8-0.9,4.6c0.3,1.2,0.8,2.3,1.2,3.3c0.3,0.8,0.6,1.5,0.8,2.2
		C542.7,135.9,543.4,138.7,541.5,140z"/>
	<path class="st2" d="M742.7,102.2c-1-0.2-1.8,0.5-2.6,0.9l-1.3,0.7c-0.9,0.4-2.3,1-4.4,1.9l-1.2,0.5c-1.8,0.7-2.9,1.9-4.2,3.2
		c-0.5,0.5-1.1,1.1-1.7,1.6c-2,1.7-3.8,2.6-6.2,3.8c-1.1,0.5-1.9,1.3-2.8,2c-0.9,0.8-1.8,1.6-3,2.1c-0.6,0.3-1.4,0.5-2.3,0.7
		c-1.6,0.4-3.5,0.9-5.7,2.2c-1.8,1.1-3.5,1.5-5.2,1.8c-0.8,0.2-1.6,0.3-2.4,0.6c-2,0.6-2.6,1.5-3.4,2.8l-0.6,0.9
		c-1,1.4-3.8,3.9-5,3.9l-0.6-0.2c-0.9-0.7-0.4-1.6,0.3-2.8c0.4-0.7,1-1.6,1.1-2.4l0.4-1.4c0.4-1.1,0.9-2.4,0.4-3.9
		c-0.6-1.8-1.7-3-2.6-4l-0.7-0.8c-0.7-0.9-0.9-1.8-0.9-3.3c0-0.5-0.5-1.2-1-1.9c-0.4-0.6-0.9-1.2-1.1-1.8c-0.4-1.3-0.2-3.7-0.1-6.2
		c0.1-1.2,0.1-2.3,0.1-3.3c0-2.9-0.5-7.2-0.9-8.9c-0.2-0.8-1.1-1.5-1.9-2.3c-0.8-0.7-1.6-1.4-2.1-2.3c-0.2-0.3-0.4-0.9-0.7-2
		c-0.3-0.9-0.6-1.9-1-3c-0.4-1-0.8-1.9-1.1-2.8c-0.8-2-1.2-3-1.3-3.7l0-0.1c-0.2-1.5-0.5-4.5-1.5-6.8c-0.5-1.1-0.9-2.3-1.3-3.7
		c-0.5-1.7-1.1-3.4-1.9-4.8c-0.6-1-1.1-2.1-1.5-3l-0.8-1.6c-0.3-0.6-0.9-1.8-1.1-0.5c-0.1,0.6,0.1,1.8,0.3,2.8
		c0.1,0.8,0.3,1.6,0.4,2.4c0.2,2-0.1,10.5-0.1,10.5c-0.1,1.9-1.4,2.1-2,2.1l-0.3,0l-0.1,0l0,0.1c-0.3,0.8-0.4,3-0.4,5.1
		c0,1.8,0.4,3.3,0.8,4.6c0.3,1,0.6,2,0.6,3c0,1.6,0.1,10,0.3,14.3c0.1,2.3,1,4.4,1.9,6.5c0.5,1.2,1,2.3,1.3,3.4c0.9,3.2,1,8.2,1,9.3
		c-0.1,1.2,0.8,1.9,1.2,2.3l0.1,0.1l0.5,0.1l0.5,0l0.6,0c1,0,1.7,0.6,1.8,1.6c0.2,1.2-1.3,7.7-2.3,10.6c-0.5,1.4-0.9,2.5-1.2,3.5
		c-0.4,1.2-0.8,2.3-1.2,3.4c-0.6,2.2-0.5,3-0.3,3.9c0.1,0.5,0.2,1,0.2,1.6l0.1,1c0.1,1.1,0.3,2.6-0.8,3.4c-0.6,0.5-2.3,1.1-5,2.1
		l-1.5,0.6c-0.7,0.3-1.7,0.5-2.7,0.8c-2.7,0.7-5.3,1.5-5.6,2.6c-0.2,0.5-0.1,0.7,1.2,1.2c0.7,0.3,1.4,0.5,1.6,1.3l-0.3,1.3
		c-0.3,0.4-0.8,0.7-2.4,1.7c-1.2,0.7-2.6,1.5-4.1,2.5c-2.8,1.9-5.6,4.8-6.2,6.3c-0.3,0.9,0.1,1.6,0.8,2.8c0.6,0.9,1.1,1.8,1.2,2.9
		c0,0.9-0.9,2.8-5.4,7.1c-1,0.9-2.1,1.9-3.2,2.8c-1.2,1-2.3,1.9-3.1,2.7c-0.8,0.8-0.8,1.4-0.9,2l-0.5,1.4l-1.3,0.8
		c-0.8,0.4-1.9,0.9-3.2,2c-1.2,0.9-1.9,2.4-2.7,3.7c-0.6,1-1.1,2-1.8,2.7c-1.3,1.3-3.3,2.3-5.4,3.4c-1.1,0.6-2.3,1.2-3.4,1.9
		c-2.5,1.5-3.4,2.4-5.4,4.2l-0.9,0.8c-0.8,0.7-1.6,1.4-2.4,2.1l-0.1,0.1c-1.7,1.4-3.4,2.9-3.7,3.4c-2,2.9-1.9,3.8-1.9,3.9
		c0.1,0.6,0.5,0.9,1.1,0.9l0.3,0c1.3-0.2,2.1-1,3.1-2l0.2-0.2c0.6-0.6,1.3-1.2,2-1.7c0.8-0.6,1.6-1.3,2.4-2.1l0.2-0.2
		c1.5-1.5,4.3-4.4,7.6-5.7c1.5-0.6,3.7-1,6-1.5c2.4-0.5,4.9-1,6.2-1.6c1.4-0.7,5.1-3.9,7.6-6.5c0.8-0.9,1.7-1.9,2.5-2.8
		c1.5-1.8,2.8-3.3,3.8-4l0.9-0.6c1.3-0.9,3-2,3.6-3.9c0.6-1.7,2.6-4.9,4.3-7.5c0.6-0.9,2.1-2.6,4-4.7l1.1-1.2c0.7-0.8,1.3-1.4,1.8-2
		c0.3-0.3,0.4-1,0.6-1.8c0.2-0.9,0.5-2,1.1-3.3c1-2.2,3.8-4.8,8.5-7.7c1.1-0.7,2.5-1.7,4-2.8c1.3-1,2.7-2,4.1-2.9
		c2.6-1.8,3.2-3.2,3.9-4.7l0.4-1c1.2-2.4,6.3-6.9,9.7-8l0.8-0.2c2.4-0.8,5.1-1.6,8.3-4.4c2.9-2.6,3.5-4.3,3.9-5.7l0.7-1.7
		c0.8-1.3,4.6-3.7,6.4-4.4c1.7-0.6,5.9-3.2,7-4.7c1-1.2,3.5-2.7,6.2-4.2c0.6-0.4,1.2-0.7,1.5-0.8c0.9-0.6,2.4-1.9,4.7-3.8
		c2-1.8,8-7.4,9.1-8.5l0.4-0.8l0,0L742.7,102.2z"/>
	<path class="st2" d="M511.2,196.3L511.2,196.3c-0.2-0.9-0.5-2.2-0.5-3.5c0-0.9-0.1-1.8-0.1-2.3c-0.3-2.3-1.1-3.5-2.6-5.9l-0.6-1
		c-2-3.2-2.7-5.6-1.2-11.6c1.1-4.8,0.5-6.1-1.5-8.5c-2.4-2.9-2.8-4.2-2.5-7.6l0.1-1.2l0-0.2c0.3-2.4,0.5-4.5-0.1-6
		c-0.2-0.5-0.5-1-0.8-1.6c-0.9-1.8-2.2-4.3-2.5-7.2c-0.2-2.4,0.6-4.1,1.5-5.9c0.6-1.3,1.3-2.6,1.7-4.3c1.2-4.6,0.8-7,0.3-8.9
		c-0.7-2.5-0.8-3.1-0.1-6c0.3-1.5,1.3-5.9,0.7-7.4l-0.5-0.6c-0.8-0.7-1.9-1.7-2.3-4.5c-0.1-1.1,0-2.2,0.1-3.2c0.2-1.2,0.3-2.4-0.1-3
		c-0.5-0.7-0.5-1.7-0.4-3.2c0.1-1.2,0.1-2.6-0.1-4c-0.3-2.2-1.2-4.3-2-6.2c-0.3-0.7-0.6-1.4-0.8-2c-0.5-1.3-0.5-3.6-0.5-6.6
		c0-2.7,0-5.8-0.4-9c-0.5-4.3-2.2-10.4-3-13.4l-0.3-1c-0.6-2.4-0.4-6.1-0.1-10.5l0.1-1.5c0.3-4.5,1.1-8.3,2.5-11.8
		c0.4-0.9,1-2.4,1.7-4c1.6-3.7,3.7-8.7,4.8-11.6c0.7-1.9,0.1-3.2-0.1-3.6l-0.7-0.7c-0.9,0.2-2.6,1.8-3.5,4c-1,2.6-1.8,3.6-3.9,6.2
		c-0.7,0.9-1.3,1.6-1.8,2.2c-1.1,1.2-1.8,2.1-2.2,3.2c-0.2,0.6-0.3,1.8-0.5,3.2c-0.3,2.6-0.7,6.1-1.8,8.9c-0.9,2.3-2.9,4.9-4.7,7.2
		c-1.1,1.5-2.2,2.9-2.6,3.7c-1,2.1-3.1,8.9-3.7,12.3c-0.2,1.2-0.4,2.2-0.5,3.1c-0.2,1.5-0.4,2.6-0.8,3.6c-0.6,1.4-1.7,4.6-2.2,7.5
		c-0.4,2.4-1.4,4.3-3.4,6.6l-0.6,0.7c-1.7,1.8-3.4,3.7-4.4,7.8c-0.3,1.1-0.5,2.1-0.9,3.3c-0.4,1.4-0.7,2.8-1.1,4.4
		c-0.2,1-0.4,3.1-0.5,5.7l-0.1,1.6c-0.1,2.6,0.3,6-0.1,9.1c-0.1,0.9-0.2,1.7-0.3,2.6c-0.1,1.2-0.2,2.4-0.4,3.6
		c-0.3,1.9-0.8,3.8-1.5,5.5l-0.8,1.6c-0.4,0.6-1.2,1-2,0.9c-0.8-0.1-1.4-0.8-1.6-1.5c-0.2-0.7-0.1-1.5,0-2.3c0.1-1,0.3-2.3-0.2-2.9
		c-1.2-1.7-1.5-3.6-1.7-6c-0.1-0.9-0.2-2-0.3-3.3c-0.1-1.3-0.3-2.8-0.4-4.5c0-0.5-0.1-1.1-0.2-1.7c-0.1-0.8-0.2-1.6-0.2-2.2
		c-0.1-2.6,0-5.9,0.1-8.6c0.1-1.9,0.2-3.6,0.1-4.4c-0.1-1.6-1.2-2.1-2-2.6c-0.5-0.3-1.1-0.6-1.2-1.2c-0.1-0.5-0.1-1.4,0-3
		c0.1-1.4,0.2-3,0.1-4.2c-0.1-1.6-0.6-2.2-1.3-3.1l-0.6-0.8c-1.2-1.7-0.9-5.1-0.6-8.4c0.1-0.7,0.1-1.4,0.2-2c0.3-3.8-0.4-4.4-2-5.7
		l-0.1-0.1c-2.1-1.7-2.1-3-2.1-5.6c0-2.7,0.9-8.1,2.1-11.3c1.7-4.4,3.4-9.7,3.5-11.6c0-0.6-0.1-1.1-0.5-1.5l-1.3-0.6h-0.1l0,0
		c-0.5,0.3-1.4,1.7-2.4,3c-0.5,0.6-0.9,1.3-1.3,1.8c-1.2,1.5-3.2,4.7-3.3,7c-0.2,2.9-1,6.7-3,8.5c-1.8,1.6-3.2,4.2-3.6,6.4
		c-0.6,3.4-1.5,5.5-3.1,5.5l-0.6-0.1c-1-0.3-1.4-2.1-1.7-3.6l-0.3-1.4l-0.6,0.6l-1,1.4l-0.9,1.2c-0.4,0.5-0.9,1.1-1.5,1.1l0,0
		l-0.5-0.1c-1-0.5-0.9-2.9-0.4-4.8l0.3-1.2l0.1-0.8l0-0.8l-0.4,0.5l-0.4,0.7l-0.8,1.4c-0.6,1.2-1,2.3-1.4,3.6
		c-0.5,1.4-0.7,2.9-0.9,4.8c-0.1,0.8,0,3-0.1,3.9c-0.1,0.6-0.4,1.8-0.8,3.3c-0.2,0.8-0.4,1.6-0.6,2.3c-0.3,1.1-0.6,2.4-0.9,3.6
		c-0.4,1.7-0.8,3.3-1.1,4.5c-0.4,1.9-1.2,4.1-2,6.4c-0.8,2.3-1.6,4.7-2.2,7.1c-1.3,4.9-0.6,10.8-0.3,13.3c0.1,1,0.3,2,0.5,3.1
		c0.4,2.3,0.8,4.8,0.7,7c-0.3,6.2-1.2,10.3-2.7,12.7c-0.5,0.9-1.3,1.9-2.1,3c-1.5,1.9-3.2,4.2-4,6.1c-1.2,2.7-0.9,7-0.7,9.5l0,0.2
		c0.1,1.2,0.6,2.6,1.2,4.1c0.6,1.5,1.2,3.1,1.6,5.1c1,4.6-0.3,10.1-0.9,12.7l-0.1,0.7c-0.2,1.1,0.3,2.5,0.8,3.8
		c0.3,0.9,0.6,1.7,0.7,2.4c0.1,0.9,0,1.9-0.1,3.5c-0.1,1.6-0.3,3.8-0.3,6.8c-0.1,7.3,0.8,8.4,1.8,8.5c0.3-0.1,0.6-0.7,1.2-1.9
		l0.3-0.5l0.7-1.8c0.2-1.9,0.6-3.5,1.1-5.3l0-0.1c0.2-0.9,0.5-1.8,0.7-2.8c0.3-1.2,0.8-2.3,1.2-3.3c0.8-1.6,1.5-3.2,1.6-5.9
		c0.1-1.6-0.3-4.8-0.8-7.4c-0.1-0.7-0.3-1.3-0.5-1.9l-0.3-1.2c-0.4-2.7,0.3-5.8,2.5-10c1.3-2.5,2.5-3.6,3.6-4.4
		c1.1-0.9,1.8-1.5,2.3-3.3c0.2-0.8,0.1-2.3-0.1-3.9c-0.3-2.3-0.6-5.2-0.1-8.3c0.2-1.4,0.6-3.5,1.1-5.5c0.4-2.1,0.9-4.3,1-5.1
		l0.1-0.9c0.1-1.9,0.4-4.7,0.9-7.7c0.3-2,0.7-3.9,1.1-5.5c0.5-2.3,0.9-4.2,1-5.7c0.1-1.9-0.4-4-0.9-6c-0.4-1.8-0.8-3.4-0.9-5
		c-0.1-3.5,1-7.3,2.9-13.7l0.2-0.7c1.2-4.1,2.5-6,4.1-6c0.8,0,1.6,0.6,1.9,1.5c0.8,2,0.5,5.6,0.2,8.8c-0.1,1.5-0.2,2.9-0.2,3.7
		c0.1,2.1,2,3.9,2.9,4.6c1.4,1,1.9,2.8,2.3,4.5c0.1,0.6,0.9,1.1,1.7,1.6c1,0.7,2.1,1.4,2.7,2.7c0.6,1.2,1.2,4.4,1.7,8.6
		c0.4,4.1,1.2,5.6,2.1,7.5c0.3,0.6,0.6,1.2,0.9,1.9c1.3,3.1,1.8,5.2,1.7,7.4c0,1.5,0.5,2.8,1,3.9l0.6,1.7c0.2,1,0,2.1-0.2,3.5
		c-0.3,1.7-0.5,3.6-0.1,5.6c0.4,1.8,1.4,2.8,3,2.9c1.6,0.2,3,1,3.7,1.7c0.9,0.8,1,2.4,1.1,4.6c0.2,2.5,0.4,5.6,1.8,8
		c0.6,1,1.3,1.7,2,2l0.7,0.1c0.7,0,1.3-0.5,1.5-1.3c0.2-0.7,0.2-2.4,0.2-4.1c0-2.6-0.1-5.8,0.5-8.4c0.6-2.7,1.8-5.2,2.8-7.3
		c0.5-1.1,1-2.1,1.4-2.9c0.5-1.4,0.6-4.2,0.6-7c0-2.6,0.1-5.2,0.5-7.3c0.4-2.1,1.8-3.8,3.3-5.7c1.5-1.8,3.1-3.9,4.1-6.6
		c1.9-5.4,1.6-6.5,0.8-9.6c-0.8-3.3,0-7.4,0.9-12.2l0.2-0.9c1.1-5.7,2.5-8.6,4-8.6l0.2,0c1.2,0.2,1.2,1.6,1.1,5.1
		c0,2.5-0.1,6.3,0.7,7.5c0.2,0.4,0.8,0.9,1.5,1.5c1.6,1.6,3.7,3.6,4.1,5.8c0.3,1.9-0.4,3.8-1.1,5.8c-0.5,1.4-1,2.8-1.3,4.4
		c-0.3,1.9-1,3.4-1.5,4.7c-0.3,0.7-0.5,1.2-0.6,1.6c-0.2,0.7-0.4,2.6,0.1,7.7c0.2,2.3,0.9,4,1.4,5.6c0.4,1,0.7,2,0.9,2.9
		c0.2,1.1,0.1,3.6,0,6.6c-0.1,2.7-0.1,5.5,0,6.7c0.3,2.6,2.1,8.8,5,12.3l0.6,0.7c1.4,1.7,2.2,2.6,2.2,4.9c0,0.9-0.3,1.7-0.6,2.5
		c-0.3,0.8-0.5,1.5-0.5,2.1c0,0.5-0.1,1.1-0.3,1.9c-0.3,1.2-0.6,2.7-0.5,4.3c0.1,2.2,1.2,2.7,2.4,3.3c0.7,0.3,1.5,0.7,1.9,1.5
		c0.2,0.4,0.1,0.8,0.1,2.2c-0.1,1.7-0.1,4.4,0.4,6c0.4,1.2,2.1,2.2,3.6,3.2c1.5,0.9,2.7,1.7,3.2,2.8c0.5,1.1,0.3,2.9-0.1,6
		c-0.1,0.9-0.4,2.8,0.2,3l0.7-1.2c0.4-0.8,1-1.4,1.7-1.5l0.2,0c1,0,1.3,1.1,1.5,2l0.3,1c0.2,0.3,0.8,2,1.4,1.6l0.2-0.5l-0.4-1.4
		C511.4,197.7,511.3,197,511.2,196.3z"/>
</g>
</svg>
